<svg xmlns="http://www.w3.org/2000/svg" width="13.367" height="15.059" viewBox="0 0 13.367 15.059">
  <path id="删除" d="M127.5,67.389H115.149a.449.449,0,0,1-.508-.508.54.54,0,0,1,.508-.508H127.5a.763.763,0,0,1,.508.508A.54.54,0,0,1,127.5,67.389Zm-4.569-2.03h-3.215a.54.54,0,0,1-.508-.508.449.449,0,0,1,.508-.508h3.215a.54.54,0,0,1,.508.508A.763.763,0,0,1,122.932,65.358ZM115.995,68.4c.338,0,.508.169.508.338v8.8a1.092,1.092,0,0,0,1.015,1.015h1.523V68.742c0-.169.169-.338.508-.338.169,0,.508.169.508.338v9.814h2.538V68.742c0-.169.169-.338.508-.338s.508.169.508.338v9.814h1.523a.948.948,0,0,0,.846-1.015v-8.8c0-.169.338-.338.508-.338.338,0,.508.169.508.338v8.8a1.878,1.878,0,0,1-1.861,1.861h-7.614a1.878,1.878,0,0,1-1.861-1.861v-8.8a.364.364,0,0,1,.338-.338Z" transform="translate(-114.641 -64.344)" fill="#fff"/>
</svg>
