<svg xmlns="http://www.w3.org/2000/svg" width="46" height="46" viewBox="0 0 46 46">
  <g id="组_12280" data-name="组 12280" transform="translate(-11270 4941)">
    <g id="组_12238" data-name="组 12238" transform="translate(11090 -7342)">
      <g id="椭圆_2" data-name="椭圆 2" transform="translate(180 2401)" fill="none" stroke="#717176" stroke-width="2">
        <circle cx="23" cy="23" r="23" stroke="none"/>
        <circle cx="23" cy="23" r="22" fill="none"/>
      </g>
    </g>
    <g id="DNA" transform="translate(11016.73 -5060.813)">
      <path id="路径_2159" data-name="路径 2159" d="M320.453,169.81l4.451-.283v.887l-4.7.3a7.666,7.666,0,0,0-.2,1.3l4.9.025v.884l-4.887-.025a4.315,4.315,0,0,0,.272,1.12l4.616.78v.9l-4.068-.687a13.651,13.651,0,0,0,3.191,2.88q-.864.451-1.746.916a11.045,11.045,0,0,1-3.406-3.617c-.937-1.835-.92-3.971.318-7.088l1.642.651C320.685,169.12,320.56,169.474,320.453,169.81Zm9.886,21.854a13.792,13.792,0,0,0,.716-1.868l-4.379.848v-.9l4.6-.891a6.226,6.226,0,0,0,.093-1.03l-4.691-.075v-.884l4.612.075a4.394,4.394,0,0,0-.5-1.385l-4.115-.934v-.909l3.324.755a19.574,19.574,0,0,0-3.6-2.819l.15-.079c.544-.283,1.091-.569,1.632-.859,4.29,2.909,6.744,5.249,3.767,11.693Z" transform="translate(-48.929 -37.605)" fill="#717176"/>
      <path id="路径_2160" data-name="路径 2160" d="M270.729,156.524c-2.941-4.322-3.868-6.934-2.88-9.177.955-2.175,3.639-3.689,7.986-5.954,1.084-.565,2.179-1.12,3.238-1.735.469-.272.912-.544,1.32-.826l-2.648-.447v-.9l3.6.608a4.894,4.894,0,0,0,1.732-2.744l-5.331-.029v-.884l5.413.029a6.653,6.653,0,0,0-.4-2.1l-5.016.318V131.8l4.673-.3a15.372,15.372,0,0,0-.78-1.513l1.531-.887c3.832,6.623,1.4,9.417-3.209,12.083-1.084.626-2.2,1.2-3.306,1.775-1.456.759-2.708,1.42-3.746,2.039l3.063.7v.905l-4.125-.937a6.24,6.24,0,0,0-2.379,2.39,2.791,2.791,0,0,0-.229,1.059l6.73.107v.884l-6.644-.107a11.644,11.644,0,0,0,1.538,3.463l5.106-.988v.9l-4.608.891q.381.6.827,1.256Z" fill="#717176"/>
    </g>
  </g>
</svg>
