<svg xmlns="http://www.w3.org/2000/svg" width="15.056" height="15.059" viewBox="0 0 15.056 15.059">
  <path id="编辑_1_" data-name="编辑 (1)" d="M9.983.558H2.234A2.232,2.232,0,0,0,0,2.792V12.825a2.232,2.232,0,0,0,2.234,2.234H12.267A2.232,2.232,0,0,0,14.5,12.825V5.189L13.385,6.3v6.52a1.116,1.116,0,0,1-1.119,1.119H2.234a1.116,1.116,0,0,1-1.119-1.119V2.792A1.116,1.116,0,0,1,2.234,1.673H8.868ZM4.716,10.277,8.1,9.316l-2.417-2.4ZM13.753,3.7,11.336,1.3,6.019,6.58l2.417,2.4Zm1.123-2.018L13.366.178a.666.666,0,0,0-.937.03L11.7.929l2.417,2.4.725-.721A.656.656,0,0,0,14.877,1.679Z" fill="#fff"/>
</svg>
