<svg xmlns="http://www.w3.org/2000/svg" width="13.001" height="13.002" viewBox="0 0 13.001 13.002">
  <g id="gantanhao" transform="translate(-56.889 -56.889)">
    <path id="路径_1769" data-name="路径 1769" d="M63.39,56.889a6.5,6.5,0,1,0,6.5,6.5,6.52,6.52,0,0,0-6.5-6.5m0,12.189a5.688,5.688,0,1,1,5.688-5.688,5.653,5.653,0,0,1-5.688,5.688" fill="#ff4b4b"/>
    <path id="路径_1770" data-name="路径 1770" d="M455.924,234.057a.833.833,0,1,0,.569.244.738.738,0,0,0-.569-.244Zm-.731-6.5.244,5.851h.894l.325-5.851Z" transform="translate(-392.534 -168.229)" fill="#ff4b4b"/>
  </g>
</svg>
