<svg xmlns="http://www.w3.org/2000/svg" width="46" height="46" viewBox="0 0 46 46">
  <g id="组_2670" data-name="组 2670" transform="translate(-21 -833)">
    <g id="组_2668" data-name="组 2668" transform="translate(-159 -1568)">
      <g id="椭圆_2" data-name="椭圆 2" transform="translate(180 2401)" fill="none" stroke="#0b94fc" stroke-width="2">
        <circle cx="23" cy="23" r="23" stroke="none"/>
        <circle cx="23" cy="23" r="22" fill="none"/>
      </g>
    </g>
    <g id="组_2669" data-name="组 2669" transform="translate(0.773 -0.66)">
      <path id="形状_603_拷贝_10" data-name="形状 603 拷贝 10" d="M701.167,568.935c2.623-2.711,5.177-6.947,7.548-3.638,1.855,2.589-1,3.9-3.882,6.392-2.584,2.233-6.029,6.557-8.25,3.671C694.555,572.725,698.544,571.645,701.167,568.935Z" transform="translate(-659 285.695)" fill="#454953" stroke="#0b94fc" stroke-width="1"/>
      <path id="形状_603_拷贝_10-2" data-name="形状 603 拷贝 10" d="M702.083,577.2c1.523-1.186,5.22-3.032,6.417-.918,1.71,3.021-1.631,2.737-3.667,4.589-1.517,1.38-4.471,5.583-6.417,3.672C695.573,581.744,699.8,578.974,702.083,577.2Z" transform="translate(-659 285.695)" fill="#454953" stroke="#0b94fc" stroke-width="1"/>
      <path id="形状_603_拷贝_25" data-name="形状 603 拷贝 25" d="M705.833,555.975c1.927-.1,4.179.519,3.946,2.938-.332,3.456-1.072,1.3-3.8,1.649-2.034.258-6.862,2-7.359-.684C697.894,555.956,702.942,556.118,705.833,555.975Z" transform="translate(-659 285.695)" fill="#454953" stroke="#0b94fc" stroke-width="1"/>
      <path id="形状_603_拷贝_24" data-name="形状 603 拷贝 24" d="M689.661,565.419c.649-1.819,2.779-5.363,4.922-4.223,3.062,1.63.091,3.186-.634,5.843-.54,1.98-.78,7.114-3.447,6.546C686.606,572.756,688.687,568.148,689.661,565.419Z" transform="translate(-659 285.695)" fill="#454953" stroke="#0b94fc" stroke-width="1"/>
      <path id="形状_603_拷贝_10-3" data-name="形状 603 拷贝 10" d="M712.166,570.77c.233-4.923-.171-9.069,2.75-8.261,3.492.965,1.644,4.776,1.833,9.179.167,3.89.388,7.732-2.75,8.261C711.932,580.3,711.76,579.359,712.166,570.77Z" transform="translate(-659 285.695)" fill="#454953" stroke="#0b94fc" stroke-width="1"/>
    </g>
  </g>
</svg>
