<svg xmlns="http://www.w3.org/2000/svg" width="32" height="32" viewBox="0 0 32 32">
  <g id="组_1933" data-name="组 1933" transform="translate(-719.043 -18)">
    <circle id="椭圆_196" data-name="椭圆 196" cx="16" cy="16" r="16" transform="translate(719.043 18)" fill="#2a9ff6" opacity="0"/>
    <path id="联合_48" data-name="联合 48" d="M16099.983,13923.9h-3.588a1,1,0,0,1-1-1v-5.062a1,1,0,0,1,1-1h11.006a1,1,0,0,1,1,1v5.062a1,1,0,0,1-1,1h-3.59v-3.836a1,1,0,0,0-1-1h-1.825a1,1,0,0,0-1,1v3.836h0Zm-6.979-7.49h0a.732.732,0,0,1,.237-.605l8.144-7.582a.868.868,0,0,1,1.163,0l8.145,7.582a.736.736,0,0,1,.238.605H16093Z" transform="translate(-15366.957 -13882)" fill="#fff"/>
  </g>
</svg>
