<svg xmlns="http://www.w3.org/2000/svg" width="14" height="14" viewBox="0 0 14 14">
  <g id="组_11447" data-name="组 11447" transform="translate(10509 6761.074) rotate(180)">
    <path id="xinxi-2" d="M59.232,54.272a6.745,6.745,0,0,1,2.724.554,7.028,7.028,0,0,1,3.715,3.722,6.99,6.99,0,0,1,0,5.455,7.049,7.049,0,0,1-3.715,3.715,6.99,6.99,0,0,1-5.455,0A7.028,7.028,0,0,1,52.778,64a6.99,6.99,0,0,1,0-5.455A7.007,7.007,0,0,1,56.5,54.826,6.8,6.8,0,0,1,59.232,54.272Zm.843,6.04a.889.889,0,0,0-.242-.632.791.791,0,0,0-.6-.258.816.816,0,0,0-.609.258.873.873,0,0,0-.25.632v5.229a.772.772,0,0,0,.25.6.874.874,0,0,0,.609.226.857.857,0,0,0,.609-.234.8.8,0,0,0,.25-.609Zm-.843-1.935a1.093,1.093,0,1,0,0-2.185,1.079,1.079,0,0,0-.78.32,1.074,1.074,0,0,0,0,1.545A1.079,1.079,0,0,0,59.232,58.377Z" transform="translate(10442.776 6692.802)" fill="rgba(255,49,49,0.8)"/>
  </g>
</svg>
