<svg xmlns="http://www.w3.org/2000/svg" viewBox="0 0 24 24">
  <defs>
    <style>
      .cls-1 {
        fill: #fff;
        opacity: 0;
      }

      .cls-2 {
        fill: none;
      }

      .cls-3, .cls-5 {
        fill: #e6e6e6;
      }

      .cls-4, .cls-5 {
        stroke: none;
      }
    </style>
  </defs>
  <g id="icon_algorithm_03_normal" transform="translate(-272 -964)">
    <rect id="矩形_1057" data-name="矩形 1057" class="cls-1" width="24" height="24" transform="translate(272 964)"/>
    <g id="形状_603" data-name="形状 603" class="cls-2" transform="translate(-169.626 806)">
      <path class="cls-4" d="M447.314,160s12.458.291,15.108,4.9c3.453,6.005-2.253,14.228-6.4,15.012-2.93.554-12.311-1.809-13.365-6.593C442.163,171.066,447.314,160,447.314,160Z"/>
      <path class="cls-5" d="M 447.9435729980469 161.0276947021484 C 447.4998779296875 162.0051422119141 446.5923461914062 164.0393524169922 445.7257690429688 166.1948394775391 C 443.5050964355469 171.718505859375 443.5956420898438 172.9192810058594 443.6363525390625 173.1039123535156 C 443.9830322265625 174.6767272949219 445.617919921875 176.1900634765625 448.2398681640625 177.3651428222656 C 450.74658203125 178.4886169433594 453.4511108398438 178.9915008544922 455.0194091796875 178.9915008544922 C 455.3416442871094 178.9915008544922 455.6252136230469 178.9700775146484 455.8393859863281 178.9296112060547 C 457.7450866699219 178.5692291259766 460.1637268066406 176.1631469726562 461.46533203125 173.3328552246094 C 462.2374572753906 171.6539154052734 463.2759094238281 168.3906097412109 461.5557861328125 165.3988647460938 C 461.0613403320312 164.5388946533203 460.0510864257812 163.7690582275391 458.5530700683594 163.1107177734375 C 457.2633056640625 162.5438842773438 455.6353149414062 162.0723114013672 453.7144165039062 161.7091064453125 C 451.2987976074219 161.2523803710938 449.0223388671875 161.0852813720703 447.9435729980469 161.0276947021484 M 447.3143920898438 159.9998931884766 C 447.3143920898438 159.9998931884766 459.772705078125 160.2913055419922 462.4226989746094 164.9004211425781 C 465.8756103515625 170.9058837890625 460.1697998046875 179.1283874511719 456.0252075195312 179.9122009277344 C 455.7448120117188 179.9652099609375 455.405029296875 179.9915161132812 455.0194091796875 179.9915161132812 C 451.3758239746094 179.9915161132812 443.6134338378906 177.6454467773438 442.6597900390625 173.3191986083984 C 442.1630859375 171.0661163330078 447.3143920898438 159.9998931884766 447.3143920898438 159.9998931884766 Z"/>
    </g>
    <path id="形状_603_拷贝" data-name="形状 603 拷贝" class="cls-3" d="M453.586,166.964s3.05-1.068,4.155.749-1.134,4.08-2.217,4.2a2.706,2.706,0,0,1-2.823-1.445C451.966,168.916,453.586,166.964,453.586,166.964Z" transform="translate(-171.509 806.348)"/>
  </g>
</svg>
