<svg xmlns="http://www.w3.org/2000/svg" viewBox="0 0 24 24">
  <defs>
    <style>
      .cls-1, .cls-2 {
        fill: #282929;
      }

      .cls-1 {
        opacity: 0;
      }
    </style>
  </defs>
  <g id="icon_algorithm_02_selected" transform="translate(-156 -964)">
    <rect id="矩形_1058" data-name="矩形 1058" class="cls-1" width="24" height="24" transform="translate(156 964)"/>
    <g id="组织" transform="translate(29.029 822.971)">
      <path id="路径_1620" data-name="路径 1620" class="cls-2" d="M226.831,260.026c2.325-1.307,6.485,2.936,3.371,5.091C226.719,267.525,223.629,261.826,226.831,260.026Zm2.594-3.325c-.1,1.178-3.566.7-3.452-.717C226.1,254.361,229.543,255.241,229.425,256.7Zm-7.118,10.438c.631-.608,2.921,1.431,2.3,2.021C223.9,269.841,221.731,267.691,222.307,267.138Zm11.751.883c.324.47-.215,1.345-1.224,2.1s-1.737,1.055-2.064.585.072-1.27,1.081-2.024S233.731,267.551,234.058,268.021Zm-12.875-7.852c.906.138.527,2.781-.347,2.683C219.412,262.692,219.916,259.974,221.184,260.169Z" transform="translate(-90.339 -109.842)"/>
      <path id="路径_1621" data-name="路径 1621" class="cls-2" d="M140.494,144.585q-.705-.439-1.416-.8a7.335,7.335,0,0,0-.92-.387,5.185,5.185,0,0,0-3-.175,2.507,2.507,0,0,0-1.64,1.173,1.439,1.439,0,0,0-.083.2c-.765,2.253-1.138,2.483-2.382,3.239-.29.178-.634.387-1.015.645a4.353,4.353,0,0,0-1.918,2.784,5.984,5.984,0,0,0,.175,2.824,10.422,10.422,0,0,0,1.428,2.97,12.043,12.043,0,0,0,7.044,5.083,11.122,11.122,0,0,0,6.017-.487,8.49,8.49,0,0,0,4.312-3.328c.1-.163.192-.324.272-.482,1.115-2.21.648-4.727-.7-7.072A18.559,18.559,0,0,0,140.494,144.585Zm1.591,12.614a.349.349,0,0,1-.482-.5,4.482,4.482,0,0,0,.94-1.3l-.6-.35a4.746,4.746,0,0,1-.55.831.35.35,0,0,1-.539-.447,3.9,3.9,0,0,0,.611-1.012l0-.006c.026-.057.046-.118.069-.178a4.486,4.486,0,0,0,.247-1.425.35.35,0,0,1,.7.009,5.265,5.265,0,0,1-.261,1.577l.582.344a5.587,5.587,0,0,0,.249-2.087.35.35,0,1,1,.7-.046,6.236,6.236,0,0,1-.35,2.543A5.309,5.309,0,0,1,142.085,157.2Zm-.447-6.562a.351.351,0,1,1-.579.4l-.077-.1a5.991,5.991,0,0,0-2.113-1.525,3,3,0,0,0-2.95.1,2.11,2.11,0,0,0-.186.14.349.349,0,1,1-.436-.545c.077-.063.155-.12.229-.172a3.653,3.653,0,0,1,3.618-.166,6.664,6.664,0,0,1,1.258.717l.533-.484c-.083-.049-.172-.092-.261-.135a.349.349,0,1,1,.3-.634,4.547,4.547,0,0,1,1.605,1.259,5.294,5.294,0,0,1,.966,1.9.353.353,0,0,1-.244.433.349.349,0,0,1-.43-.244,4.573,4.573,0,0,0-.834-1.648,3.677,3.677,0,0,0-.513-.522l-.565.51a4.563,4.563,0,0,1,.568.576C141.569,150.545,141.606,150.594,141.638,150.637Zm-4.5,8.91a.7.7,0,1,1-.7.7A.7.7,0,0,1,137.134,159.546Zm.367-3.01a.1.1,0,0,1,.029,0,.342.342,0,0,1,.077.02,3.248,3.248,0,0,0,.456.057,2.183,2.183,0,0,0,.482-.026.348.348,0,1,1,.126.685,2.7,2.7,0,0,1-.634.037c-.083-.006-.169-.011-.255-.023l-.08.57c.118.009.235.017.353.017a3.7,3.7,0,0,0,1.912-.37.35.35,0,1,1,.376.591,4.37,4.37,0,0,1-2.3.476,6.628,6.628,0,0,1-.754-.06.079.079,0,0,1-.026,0,.084.084,0,0,1-.026-.006,4.585,4.585,0,0,1-1.6-.5.35.35,0,0,1,.353-.6,3.478,3.478,0,0,0,1.026.361l.086-.616a5.162,5.162,0,0,1-1.683-.863,4.407,4.407,0,0,1-1.611-2.313l-.711.023a4.5,4.5,0,0,0,.2.631.35.35,0,1,1-.648.264,6.07,6.07,0,0,1-.023-4.292,5.365,5.365,0,0,1,2.758-3.03.347.347,0,0,1,.464.166.353.353,0,0,1-.166.467,4.693,4.693,0,0,0-2.4,2.64,5.463,5.463,0,0,0-.31,2.457l.714-.023a3.607,3.607,0,0,1-.009-.5.347.347,0,0,1,.364-.333.351.351,0,0,1,.335.364,3.308,3.308,0,0,0,.046.722,3.62,3.62,0,0,0,1.419,2.2,4.263,4.263,0,0,0,1.657.808Zm2.05-13.686c.5.255,1.009.539,1.5.843a19.655,19.655,0,0,1,6.533,6.559c1.511,2.635,2.015,5.5.722,8.067-.1.192-.2.381-.318.565a9.536,9.536,0,0,1-4.839,3.755,12.212,12.212,0,0,1-6.594.533,13.152,13.152,0,0,1-7.7-5.521,11.55,11.55,0,0,1-1.571-3.274,7.029,7.029,0,0,1-.192-3.317,5.371,5.371,0,0,1,2.359-3.44c.439-.3.771-.5,1.055-.674.995-.6,1.293-.788,1.932-2.683a2.3,2.3,0,0,1,.143-.338,3.535,3.535,0,0,1,2.3-1.714,6.209,6.209,0,0,1,3.609.195A8.012,8.012,0,0,1,139.551,142.851Z"/>
      <path id="路径_1622" data-name="路径 1622" class="cls-2" d="M758.291,513.991c-.725.192-1.17-1.99-.3-2.219C758.994,511.508,759.192,513.756,758.291,513.991Z" transform="translate(-612.465 -359.123)"/>
    </g>
  </g>
</svg>
