<svg xmlns="http://www.w3.org/2000/svg" width="45.98" height="46" viewBox="0 0 45.98 46">
  <g id="组_2617" data-name="组 2617" transform="translate(-635.88 -2757)">
    <g id="椭圆_2" data-name="椭圆 2" transform="translate(635.88 2757)" fill="#0b94fc" stroke="#0b94fc" stroke-width="1">
      <ellipse cx="22.99" cy="23" rx="22.99" ry="23" stroke="none"/>
      <ellipse cx="22.99" cy="23" rx="22.49" ry="22.5" fill="none"/>
    </g>
    <path id="形状_603_拷贝_31" data-name="形状 603 拷贝 31" d="M767.8,399.379s1.951-1.3,2.388-.355c.378.82-2.09,2.8-2.575,2.863s-1.374.636-1.455-.007C766.031,400.831,767.8,399.379,767.8,399.379Z" transform="translate(-111 2388)" fill="#542a0d"/>
    <g id="形状_603_拷贝_7" data-name="形状 603 拷贝 7" transform="translate(-108 2387)" fill="rgba(255,255,255,0.25)">
      <path d="M 770.3299560546875 388.8323974609375 C 767.4544677734375 388.8323974609375 763.0059204101562 387.5377197265625 762.5897827148438 384.7588500976562 C 762.272216796875 382.6391906738281 762.82568359375 380.8622741699219 764.2347412109375 379.4774475097656 C 765.3094482421875 378.4212646484375 766.5065307617188 377.9923400878906 766.5184936523438 377.9881286621094 L 766.5477905273438 377.9778137207031 L 766.5765991210938 377.963623046875 C 766.60546875 377.9492492675781 769.5201416015625 376.516357421875 772.3257446289062 376.516357421875 C 774.3763427734375 376.516357421875 775.8369140625 377.2813415527344 776.6668701171875 378.7901000976562 C 777.791015625 380.8332214355469 776.94140625 383.0999755859375 776.3348999023438 384.2693481445312 C 775.136474609375 386.5800476074219 772.850830078125 388.6058654785156 771.23974609375 388.7852783203125 C 770.9590454101562 388.8165283203125 770.6529541015625 388.8323974609375 770.3299560546875 388.8323974609375 Z" stroke="none"/>
      <path d="M 772.3257446289062 377.016357421875 C 769.6431274414062 377.016357421875 766.826904296875 378.3976135253906 766.7996215820312 378.4111022949219 L 766.7470703125 378.4380493164062 L 766.6854248046875 378.4594421386719 C 766.6742553710938 378.4634399414062 765.5538330078125 378.8704528808594 764.559814453125 379.859130859375 C 763.2902221679688 381.1220092773438 762.793701171875 382.7455749511719 763.084228515625 384.6847839355469 C 763.440673828125 387.0647583007812 767.521240234375 388.3323669433594 770.3298950195312 388.3323669433594 C 770.634521484375 388.3323669433594 770.9219970703125 388.3175659179688 771.1844482421875 388.288330078125 C 772.4672241210938 388.1454772949219 774.66455078125 386.4039916992188 775.89111328125 384.0391540527344 C 776.4515991210938 382.9583435058594 777.2409057617188 380.8705749511719 776.2288208007812 379.0311279296875 C 775.4830322265625 377.6753845214844 774.206298828125 377.016357421875 772.3257446289062 377.016357421875 M 772.3257446289062 376.016357421875 C 774.1915893554688 376.016357421875 776.0386962890625 376.6108093261719 777.10498046875 378.5491027832031 C 779.4918212890625 382.8872985839844 774.3590698242188 388.9410095214844 771.2951049804688 389.2821960449219 C 770.9954833984375 389.3155822753906 770.6713256835938 389.3323974609375 770.3298950195312 389.3323974609375 C 767.1795654296875 389.3323974609375 762.5546875 387.9007263183594 762.0952758789062 384.8328857421875 C 761.2637939453125 379.2825927734375 766.3535766601562 377.51611328125 766.3535766601562 377.51611328125 C 766.3535766601562 377.51611328125 769.3629150390625 376.016357421875 772.3257446289062 376.016357421875 Z" stroke="none" fill="#a3d8ff"/>
    </g>
    <path id="形状_603_拷贝_31-2" data-name="形状 603 拷贝 31" d="M770.615,380.657s2.544-1.247,3.422.323c.76,1.358-.874,3.254-1.849,3.361s-2.766-.328-2.928-1.393A2.083,2.083,0,0,1,770.615,380.657Z" transform="translate(-110 2388)" fill="#fff"/>
    <g id="形状_603_拷贝_7-2" data-name="形状 603 拷贝 7" transform="translate(-111 2387)" fill="rgba(255,255,255,0.25)">
      <path d="M 760.4259643554688 398.0466613769531 C 758.8585205078125 398.0466613769531 756.1483154296875 397.6329956054688 755.9330444335938 396.0826416015625 C 755.4988403320312 392.9568176269531 758.51123046875 390.9201049804688 758.7413330078125 390.7697448730469 C 758.91357421875 390.6805419921875 760.5285034179688 389.86669921875 762.0729370117188 389.86669921875 C 763.2338256835938 389.86669921875 764.026123046875 390.3135375976562 764.4950561523438 391.2327270507812 C 765.0401000976562 392.3012390136719 764.8721923828125 393.8153686523438 764.0344848632812 395.3868103027344 C 763.2179565429688 396.9183654785156 762.0511474609375 397.9151306152344 761.394775390625 397.9939575195312 C 761.1077880859375 398.0284118652344 760.7727661132812 398.0466613769531 760.4259643554688 398.0466613769531 Z" stroke="none"/>
      <path d="M 762.0728759765625 390.36669921875 C 760.6951904296875 390.36669921875 759.2279052734375 391.0831604003906 758.994873046875 391.2015991210938 C 758.8477783203125 391.3002319335938 758.1495971679688 391.7884826660156 757.5142211914062 392.575439453125 C 756.6289672851562 393.6717529296875 756.2636108398438 394.8285827636719 756.4282836914062 396.0138854980469 C 756.5679931640625 397.0201721191406 758.545166015625 397.5466613769531 760.426025390625 397.5466613769531 C 760.753173828125 397.5466613769531 761.0675659179688 397.5296630859375 761.3351440429688 397.4975280761719 C 761.786376953125 397.4433288574219 762.8222045898438 396.597900390625 763.59326171875 395.1515197753906 C 764.3418579101562 393.747314453125 764.5125122070312 392.3672790527344 764.0496826171875 391.4599609375 C 763.8102416992188 390.9906311035156 763.3448486328125 390.36669921875 762.0728759765625 390.36669921875 M 762.0728759765625 389.36669921875 C 763.1923828125 389.36669921875 764.3005981445312 389.7513122558594 764.9404296875 391.0054931640625 C 766.3723754882812 393.8127136230469 763.2927856445312 398.2695922851562 761.4544067382812 398.4903869628906 C 761.1570434570312 398.526123046875 760.8060913085938 398.5466613769531 760.426025390625 398.5466613769531 C 758.4561767578125 398.5466613769531 755.6939086914062 397.9957275390625 755.4378051757812 396.1513977050781 C 754.9389038085938 392.5600891113281 758.4896240234375 390.3371887207031 758.4896240234375 390.3371887207031 C 758.4896240234375 390.3371887207031 760.2952270507812 389.36669921875 762.0728759765625 389.36669921875 Z" stroke="none" fill="#a3d8ff"/>
    </g>
    <g id="形状_603_拷贝_7-3" data-name="形状 603 拷贝 7" transform="translate(-111 2388)" fill="rgba(255,255,255,0.25)">
      <path d="M 765.1658325195312 406.3837890625 C 764.1207275390625 406.3837890625 763.2283935546875 405.8590087890625 762.4378051757812 404.7794799804688 C 761.7587890625 403.8522644042969 761.5309448242188 402.971435546875 761.7412109375 402.086669921875 C 762.371337890625 399.4353637695312 766.7684326171875 397.1907043457031 770.3015747070312 395.3871154785156 C 772.1414184570312 394.4479064941406 773.7303466796875 393.6367797851562 774.6028442382812 392.8747863769531 C 775.27880859375 392.284423828125 775.9852905273438 391.5647888183594 776.7332763671875 390.8028869628906 C 778.7030029296875 388.7964477539062 780.9356079101562 386.5223083496094 782.8284301757812 386.5223083496094 C 783.3650512695312 386.5223083496094 783.8513793945312 386.705322265625 784.3153076171875 387.0817565917969 C 784.5658569335938 387.2850952148438 784.6835327148438 387.5333251953125 784.6854858398438 387.8629455566406 C 784.689697265625 388.5740661621094 784.1589965820312 389.9725646972656 781.6065673828125 392.5964660644531 C 779.8751220703125 394.3764038085938 777.8736572265625 396.04052734375 776.7984008789062 396.9345397949219 L 776.7787475585938 396.950927734375 C 776.0130004882812 397.5876159667969 775.0858764648438 398.6031494140625 774.0123291015625 399.7790222167969 C 771.4675903320312 402.5663757324219 767.9824829101562 406.3837890625 765.1658325195312 406.3837890625 Z" stroke="none"/>
      <path d="M 782.828369140625 387.0223388671875 C 781.1453857421875 387.0223388671875 778.8967895507812 389.3127746582031 777.0900268554688 391.1531982421875 C 776.3351440429688 391.922119140625 775.6221923828125 392.6483764648438 774.9317016601562 393.2513732910156 C 774.0126953125 394.0539855957031 772.3982543945312 394.878173828125 770.5288696289062 395.8324279785156 C 767.2689819335938 397.49658203125 762.8043823242188 399.7756958007812 762.2276611328125 402.2022705078125 C 762.0532836914062 402.9358520507812 762.2540283203125 403.6822204589844 762.8412475585938 404.4840393066406 C 763.5309448242188 405.4259033203125 764.2913208007812 405.8837585449219 765.1658325195312 405.8837585449219 C 767.7619018554688 405.8837585449219 771.1610717773438 402.1605529785156 773.6430053710938 399.4419250488281 C 774.72900390625 398.25244140625 775.6668701171875 397.2251281738281 776.4590454101562 396.5664672851562 L 776.4786376953125 396.5501708984375 C 777.5468139648438 395.6620483398438 779.5350341796875 394.0089416503906 781.2481079101562 392.2479248046875 C 783.9065551757812 389.5150451660156 784.1879272460938 388.2730407714844 784.1854858398438 387.8659362792969 C 784.1844482421875 387.68603515625 784.1342163085938 387.5787048339844 784.000244140625 387.4700317382812 C 783.6238403320312 387.1645812988281 783.25146484375 387.0223388671875 782.828369140625 387.0223388671875 M 782.828369140625 386.0223083496094 C 783.4482421875 386.0223083496094 784.052001953125 386.2242126464844 784.63037109375 386.6935119628906 C 787.302978515625 388.8622131347656 779.590576171875 395.2632141113281 777.098388671875 397.3353881835938 C 774.4561157226562 399.5324096679688 769.3829345703125 406.8837585449219 765.1658325195312 406.8837585449219 C 764.0401000976562 406.8837585449219 762.9756469726562 406.3601684570312 762.034423828125 405.0748901367188 C 757.638916015625 399.072998046875 771.2017822265625 395.1813049316406 774.27392578125 392.4981994628906 C 776.7971801757812 390.2944946289062 779.9785766601562 386.0223083496094 782.828369140625 386.0223083496094 Z" stroke="none" fill="#a3d8ff"/>
    </g>
    <path id="形状_603_拷贝_31-3" data-name="形状 603 拷贝 31" d="M760.213,392.988s1.264-.753,1.7.2a1.7,1.7,0,0,1-.919,2.029c-.484.065-1.374-.2-1.455-.841A1.264,1.264,0,0,1,760.213,392.988Z" transform="translate(-112 2387)" fill="#fff"/>
    <path id="形状_603_拷贝_31-4" data-name="形状 603 拷贝 31" d="M767.8,399.379s1.951-1.3,2.388-.355c.378.82-2.09,2.8-2.575,2.863s-1.374.636-1.455-.007C766.031,400.831,767.8,399.379,767.8,399.379Z" transform="translate(-111 2388)" fill="#fff"/>
  </g>
</svg>
