<?xml version="1.0" standalone="no"?><!DOCTYPE svg PUBLIC "-//W3C//DTD SVG 1.1//EN" "http://www.w3.org/Graphics/SVG/1.1/DTD/svg11.dtd"><svg class="icon" width="48px" height="43.81px" viewBox="0 0 1122 1024" version="1.1" xmlns="http://www.w3.org/2000/svg"><path d="M545.544828 506.703448c-3.531034 0-8.827586-1.765517-12.358621-5.296551L287.77931 264.827586c-3.531034-3.531034-5.296552-7.062069-5.296551-12.35862s1.765517-8.827586 5.296551-12.358621L427.255172 105.931034c7.062069-7.062069 15.889655-7.062069 22.951725 0l247.172413 238.344828c3.531034 3.531034 5.296552 7.062069 5.296552 12.358621s-1.765517 8.827586-5.296552 12.35862l-139.475862 134.179311c-3.531034 1.765517-7.062069 3.531034-12.35862 3.531034zM323.089655 252.468966l222.455173 215.393103 114.75862-111.227586L437.848276 141.241379l-114.758621 111.227587z" fill="#249af2" /><path d="M335.448276 234.813793c-3.531034 0-8.827586-1.765517-12.358621-5.296552l-47.668965-45.903448c-3.531034-3.531034-5.296552-7.062069-5.296552-12.358621s1.765517-8.827586 5.296552-12.35862l65.324138-63.558621c7.062069-7.062069 15.889655-7.062069 22.951724 0L411.365517 141.241379c3.531034 3.531034 5.296552 7.062069 5.296552 12.358621s-1.765517 8.827586-5.296552 12.358621L347.806897 229.517241c-3.531034 3.531034-8.827586 5.296552-12.358621 5.296552z m-22.951724-61.793103l22.951724 22.951724 40.606896-40.606897L353.103448 132.413793l-40.606896 40.606897zM617.931034 519.062069c-3.531034 0-8.827586-1.765517-10.593103-5.296552L564.965517 473.158621c-3.531034-3.531034-5.296552-7.062069-5.296551-12.358621s1.765517-8.827586 5.296551-12.358621l84.744828-81.213793c7.062069-7.062069 15.889655-7.062069 22.951724 0l42.372414 40.606897c3.531034 3.531034 5.296552 7.062069 5.296551 12.35862s-1.765517 8.827586-5.296551 12.358621l-84.744828 81.213793c-3.531034 3.531034-8.827586 5.296552-12.358621 5.296552z m-19.420689-56.496552l19.420689 17.655173 60.027587-58.262069-19.42069-17.655173-60.027586 58.262069z" fill="#249af2" /><path d="M665.6 543.77931c-3.531034 0-8.827586-1.765517-12.358621-5.296551l-35.310345-37.075862c-3.531034-3.531034-5.296552-7.062069-5.296551-12.358621 0-5.296552 1.765517-8.827586 5.296551-12.358621l56.496552-54.731034c7.062069-7.062069 17.655172-5.296552 22.951724 0l37.075862 37.075862c3.531034 3.531034 5.296552 7.062069 5.296552 12.35862 0 5.296552-1.765517 8.827586-5.296552 12.358621l-56.496551 54.731035c-3.531034 3.531034-7.062069 5.296552-12.358621 5.296551z m-12.358621-52.965517l14.124138 14.124138 33.544828-31.77931-14.124138-14.124138-33.544828 31.77931z" fill="#249af2" /><path d="M561.434483 840.386207c-151.834483 0-275.42069-120.055172-275.42069-266.593104 0-84.744828 42.372414-165.958621 114.758621-215.393103l19.420689 26.482759c-63.558621 44.137931-100.634483 114.758621-100.634482 188.910344 0 128.882759 109.462069 233.048276 241.875862 233.048276 125.351724 0 231.282759-93.572414 241.875862-213.627586v-19.42069h33.544827c0 7.062069 0 14.124138-1.765517 21.186207-10.593103 137.710345-130.648276 245.406897-273.655172 245.406897z" fill="#249af2" /><path d="M686.927448 671.126069l205.400276-193.942069 23.022345 24.381793-205.382621 193.959724zM780.358621 919.834483H344.275862c-8.827586 0-15.889655-7.062069-15.889655-15.889655V829.793103c0-8.827586 7.062069-15.889655 15.889655-15.889655h434.317241c8.827586 0 15.889655 7.062069 15.889656 15.889655v74.151725c1.765517 8.827586-5.296552 15.889655-14.124138 15.889655z m-418.427587-33.544828h400.772414v-40.606896H361.931034v40.606896z" fill="#249af2" /></svg>