<svg xmlns="http://www.w3.org/2000/svg" width="46" height="46" viewBox="0 0 46 46">
  <g id="组_2602" data-name="组 2602" transform="translate(-250 -2404)">
    <g id="组_2600" data-name="组 2600">
      <g id="椭圆_2_拷贝_3" data-name="椭圆 2 拷贝 3" transform="translate(250 2404)" fill="none" stroke="#0b94fc" stroke-width="2">
        <circle cx="23" cy="23" r="23" stroke="none"/>
        <circle cx="23" cy="23" r="22" fill="none"/>
      </g>
      <g id="algorithm-icon12-big_拷贝" data-name="algorithm-icon12-big 拷贝" transform="translate(-702.909 2035)">
        <g id="形状_603_拷贝_16" data-name="形状 603 拷贝 16" fill="rgba(211,233,249,0.3)">
          <path d="M 975.5726318359375 389.3990783691406 C 973.960205078125 389.3990783691406 972.1627197265625 389.0154724121094 970.7643432617188 388.3729248046875 C 969.6298828125 387.8516540527344 968.2308349609375 386.9192810058594 968.008056640625 385.437744140625 C 967.6959838867188 383.3624572753906 968.2450561523438 381.6255187988281 969.6400756835938 380.2751770019531 C 970.69189453125 379.2570190429688 971.833251953125 378.8547973632812 971.8446655273438 378.8508605957031 L 971.8749389648438 378.8403930664062 L 971.9036254882812 378.8261413574219 C 971.931884765625 378.8121337890625 974.7825927734375 377.4160461425781 977.5262451171875 377.4160461425781 C 979.529296875 377.4160461425781 980.9557495117188 378.1599426269531 981.7659912109375 379.6271057128906 C 982.8593139648438 381.6068725585938 982.037353515625 383.8046569824219 981.4501342773438 384.9385375976562 C 980.2802124023438 387.1974792480469 978.042724609375 389.1778564453125 976.46240234375 389.3531494140625 C 976.1878662109375 389.3836059570312 975.8885498046875 389.3990783691406 975.5726318359375 389.3990783691406 Z" stroke="none"/>
          <path d="M 977.5262451171875 377.9160461425781 C 974.9052124023438 377.9160461425781 972.152587890625 379.2608642578125 972.1259765625 379.2739868164062 L 972.068603515625 379.3024597167969 L 972.008056640625 379.3233947753906 C 971.9976806640625 379.3269958496094 970.9454345703125 379.7074890136719 969.98779296875 380.6344299316406 C 968.715576171875 381.865966796875 968.2158203125 383.4570007324219 968.5025024414062 385.3634033203125 C 968.6920776367188 386.6241149902344 969.9506225585938 387.4487609863281 970.9730834960938 387.9185791015625 C 972.3092041015625 388.5325317382812 974.0286254882812 388.8990478515625 975.5725708007812 388.8990478515625 C 975.8701782226562 388.8990478515625 976.1509399414062 388.8846435546875 976.4072875976562 388.856201171875 C 977.6629638671875 388.7168884277344 979.810546875 387.01708984375 981.0061645507812 384.7086181640625 C 981.5474853515625 383.6634216308594 982.3091430664062 381.6448364257812 981.3282470703125 379.8688354492188 C 980.6026611328125 378.5548095703125 979.3590087890625 377.9160461425781 977.5262451171875 377.9160461425781 M 977.5262451171875 376.9160461425781 C 979.3523559570312 376.9160461425781 981.1600952148438 377.49560546875 982.2036743164062 379.3854064941406 C 984.5396728515625 383.6152954101562 979.5162963867188 389.5174865722656 976.5175170898438 389.85009765625 C 976.2243041992188 389.8826293945312 975.90673828125 389.8990478515625 975.5726318359375 389.8990478515625 C 972.4894409179688 389.8990478515625 967.96337890625 388.5032348632812 967.5136108398438 385.5120849609375 C 966.6998901367188 380.1007080078125 971.6812744140625 378.3782958984375 971.6812744140625 378.3782958984375 C 971.6812744140625 378.3782958984375 974.6265258789062 376.9160461425781 977.5262451171875 376.9160461425781 Z" stroke="none" fill="#0b94fc"/>
        </g>
        <path id="形状_603_拷贝_31" data-name="形状 603 拷贝 31" d="M973.309,382.255s2.465-1.216,3.316.315c.736,1.325-.847,3.173-1.792,3.277s-2.68-.32-2.837-1.358A2.03,2.03,0,0,1,973.309,382.255Z" fill="#46474e"/>
        <g id="形状_603_拷贝_16-2" data-name="形状 603 拷贝 16" fill="rgba(211,233,249,0.3)">
          <path d="M 965.8380126953125 398.3831481933594 C 964.3074951171875 398.3831481933594 961.661376953125 397.9820556640625 961.4517822265625 396.4786682128906 C 961.270751953125 395.1795959472656 961.66845703125 393.9219970703125 962.6339721679688 392.7408142089844 C 963.32666015625 391.8934326171875 964.0831298828125 391.3842468261719 964.1942749023438 391.3116760253906 C 964.3663940429688 391.2229309082031 965.942626953125 390.4326171875 967.4495239257812 390.4326171875 C 968.5814819335938 390.4326171875 969.3536987304688 390.8662719726562 969.8104248046875 391.7583312988281 C 970.3397827148438 392.792236328125 970.1782836914062 394.2587280273438 969.3673095703125 395.7818298339844 C 968.5697021484375 397.280029296875 967.4279174804688 398.2548828125 966.784912109375 398.3318481445312 C 966.50439453125 398.3654174804688 966.177001953125 398.3831481933594 965.8380126953125 398.3831481933594 Z" stroke="none"/>
          <path d="M 967.449462890625 390.9326171875 C 966.1038208007812 390.9326171875 964.66943359375 391.6313171386719 964.445068359375 391.7449645996094 C 964.1502685546875 391.9401245117188 961.5736694335938 393.7311706542969 961.947021484375 396.40966796875 C 962.0804443359375 397.3667297363281 964.0513305664062 397.8831481933594 965.8380126953125 397.8831481933594 C 966.157470703125 397.8831481933594 966.46435546875 397.8666381835938 966.7254638671875 397.8353881835938 C 967.1541748046875 397.7841186523438 968.1844482421875 396.9396057128906 968.9259643554688 395.5468444824219 C 969.648193359375 394.1904602050781 969.8124389648438 392.859375 969.3653564453125 391.9861755371094 C 969.1337890625 391.5339050292969 968.6832885742188 390.9326171875 967.449462890625 390.9326171875 M 967.4495239257812 389.9326171875 C 968.5450439453125 389.9326171875 969.6294555664062 390.3076171875 970.2554931640625 391.5304870605469 C 971.6567993164062 394.2674865722656 968.643310546875 398.6130065917969 966.8442993164062 398.8283081054688 C 966.5533447265625 398.8631286621094 966.2100219726562 398.8831481933594 965.8380737304688 398.8831481933594 C 963.910400390625 398.8831481933594 961.207275390625 398.3459167480469 960.9566040039062 396.5476989746094 C 960.468505859375 393.0461120605469 963.94287109375 390.87890625 963.94287109375 390.87890625 C 963.94287109375 390.87890625 965.7098999023438 389.9326171875 967.4495239257812 389.9326171875 Z" stroke="none" fill="#0b94fc"/>
        </g>
        <g id="形状_603_拷贝_16-3" data-name="形状 603 拷贝 16" fill="rgba(211,233,249,0.3)">
          <path d="M 971.1808471679688 406.5118713378906 C 970.1583862304688 406.5118713378906 969.2853393554688 406.0014953613281 968.5118408203125 404.9516296386719 C 967.8494873046875 404.0526428222656 967.6264038085938 403.1991882324219 967.829833984375 402.3424987792969 C 968.442626953125 399.7615051269531 972.7559204101562 397.5728759765625 976.2216796875 395.8142700195312 C 978.02685546875 394.8982849121094 979.5859375 394.107177734375 980.4425659179688 393.3634643554688 C 981.10595703125 392.7875671386719 981.799072265625 392.0858154296875 982.5328369140625 391.3428344726562 C 984.4637451171875 389.3877563476562 986.6522216796875 387.171875 988.5057983398438 387.171875 C 989.0304565429688 387.171875 989.5059814453125 387.3496704101562 989.95947265625 387.7154846191406 C 990.2021484375 387.9111938476562 990.3160400390625 388.1498718261719 990.3179321289062 388.4666137695312 C 990.3220825195312 389.1572265625 989.8021240234375 390.5167846679688 987.3016357421875 393.0718688964844 C 985.6036987304688 394.806884765625 983.6407470703125 396.4292297363281 982.586181640625 397.30078125 L 982.5667724609375 397.3168029785156 C 981.815185546875 397.9380187988281 980.905517578125 398.9284057617188 979.8522338867188 400.0751953125 C 977.3572998046875 402.7915954589844 973.9403076171875 406.5118713378906 971.1808471679688 406.5118713378906 Z" stroke="none"/>
          <path d="M 988.5057983398438 387.671875 C 986.8612060546875 387.671875 984.6585083007812 389.902099609375 982.888671875 391.6941223144531 C 982.1478881835938 392.4441528320312 981.4482421875 393.1525573730469 980.7703857421875 393.7410278320312 C 979.8671264648438 394.5251770019531 978.2826538085938 395.3291625976562 976.4479370117188 396.2601318359375 C 973.252197265625 397.8817138671875 968.8755493164062 400.1025390625 968.3162841796875 402.4580383300781 C 968.14892578125 403.1629333496094 968.3445434570312 403.881591796875 968.9144287109375 404.6550598144531 C 969.5870361328125 405.5680541992188 970.3284301757812 406.0118713378906 971.1808471679688 406.0118713378906 C 973.7206420898438 406.0118713378906 977.0516967773438 402.3851318359375 979.48388671875 399.7369995117188 C 980.5497436523438 398.5766296386719 981.4701538085938 397.574462890625 982.248291015625 396.931396484375 L 982.267578125 396.9154052734375 C 983.3150634765625 396.0496826171875 985.2647705078125 394.4382934570312 986.9442749023438 392.72216796875 C 989.5449829101562 390.0646667480469 989.8203125 388.8629150390625 989.8179321289062 388.4696044921875 C 989.8169555664062 388.3019714355469 989.7718505859375 388.2064819335938 989.6455688476562 388.1046447753906 C 989.2794799804688 387.8093872070312 988.9172973632812 387.671875 988.5057983398438 387.671875 M 988.5057983398438 386.6718444824219 C 989.1138305664062 386.6718444824219 989.7060546875 386.8687133789062 990.2733764648438 387.3262939453125 C 992.89501953125 389.4407043457031 985.3300170898438 395.6817016601562 982.8853149414062 397.7022094726562 C 980.2936401367188 399.8442077636719 975.3173828125 407.0118408203125 971.1808471679688 407.0118408203125 C 970.07666015625 407.0118408203125 969.0325927734375 406.5013732910156 968.1093139648438 405.2481994628906 C 963.7977905273438 399.3963012695312 977.1015014648438 395.6018981933594 980.1148071289062 392.9859008789062 C 982.58984375 390.8372497558594 985.71044921875 386.6718444824219 988.5057983398438 386.6718444824219 Z" stroke="none" fill="#0b94fc"/>
        </g>
        <path id="形状_603_拷贝_31-2" data-name="形状 603 拷贝 31" d="M964.567,393.463s1.232-.734,1.658.191a1.656,1.656,0,0,1-.9,1.978c-.472.063-1.34-.193-1.419-.82A1.233,1.233,0,0,1,964.567,393.463Z" fill="#46474e"/>
        <path id="形状_603_拷贝_31-3" data-name="形状 603 拷贝 31" d="M972.215,399.695s1.9-1.271,2.33-.346c.368.8-2.04,2.729-2.512,2.792s-1.341.62-1.42-.007C970.484,401.111,972.215,399.695,972.215,399.695Z" fill="#46474e"/>
      </g>
    </g>
  </g>
</svg>
