<?xml version="1.0" encoding="utf-8"?>
<!-- Generator: Adobe Illustrator 22.1.0, SVG Export Plug-In . SVG Version: 6.00 Build 0)  -->
<svg version="1.1" id="图层_1" xmlns="http://www.w3.org/2000/svg" xmlns:xlink="http://www.w3.org/1999/xlink" x="0px" y="0px"
	 viewBox="0 0 32 32" style="enable-background:new 0 0 32 32;" xml:space="preserve">
<style type="text/css">
	.st0{fill:#1196FD;}
</style>
<path class="st0" d="M16,19.7c-2,0-3.7-1.6-3.7-3.7c0-2,1.6-3.7,3.7-3.7c2,0,3.7,1.6,3.7,3.7l0,0C19.7,18,18,19.7,16,19.7z M16,13
	c-1.7,0-3,1.3-3,3s1.3,3,3,3s3-1.3,3-3S17.7,13,16,13z"/>
<path class="st0" d="M16,24.7c-4.8,0-8.7-3.9-8.7-8.7c0-4.8,3.9-8.7,8.7-8.7c4.8,0,8.7,3.9,8.7,8.7S20.8,24.7,16,24.7
	C16,24.7,16,24.7,16,24.7z M16,8c-4.4,0-8,3.6-8,8s3.6,8,8,8s8-3.6,8-8S20.4,8,16,8z"/>
<path class="st0" d="M16,29.7C8.5,29.7,2.3,23.5,2.3,16S8.5,2.3,16,2.3S29.7,8.5,29.7,16c0,0,0,0,0,0C29.7,23.5,23.5,29.7,16,29.7z
	 M16,3C8.8,3,3,8.8,3,16s5.8,13,13,13s13-5.8,13-13C29,8.8,23.2,3,16,3z"/>
<path class="st0" d="M2.7,15.7h26.7v0.7H2.7V15.7z"/>
<path class="st0" d="M15.7,2.7h0.7v26.7h-0.7V2.7z"/>
<path class="st0" d="M8.1,10.9c0,0.6,0.5,1.1,1.1,1.1c0.6,0,1.1-0.5,1.1-1.1c0,0,0,0,0,0c0-0.6-0.5-1.1-1.1-1.1
	C8.6,9.8,8.1,10.3,8.1,10.9C8.1,10.9,8.1,10.9,8.1,10.9z"/>
<path class="st0" d="M23.3,16c0,0.6,0.5,1.1,1.1,1.1c0.6,0,1.1-0.5,1.1-1.1c0,0,0,0,0,0c0-0.6-0.5-1.1-1.1-1.1
	C23.7,14.9,23.3,15.4,23.3,16C23.3,16,23.3,16,23.3,16z"/>
</svg>
