<svg xmlns="http://www.w3.org/2000/svg" width="46" height="46" viewBox="0 0 46 46">
  <g id="组_2599" data-name="组 2599" transform="translate(-180 -2401)">
    <g id="椭圆_2" data-name="椭圆 2" transform="translate(180 2401)" fill="none" stroke="#0b94fc" stroke-width="2">
      <circle cx="23" cy="23" r="23" stroke="none"/>
      <circle cx="23" cy="23" r="22" fill="none"/>
    </g>
    <g id="形状_603_拷贝_4" data-name="形状 603 拷贝 4" transform="translate(-46.949 433)" fill="rgba(211,233,249,0.12)">
      <path d="M 252.5872650146484 2005.518432617188 C 250.1217651367188 2005.518432617188 245.885986328125 2004.736206054688 241.9807891845703 2002.988647460938 C 239.9828338623047 2002.094604492188 238.3316650390625 2001.06689453125 237.0731048583984 1999.933959960938 C 235.6713562011719 1998.672119140625 234.8015747070312 1997.312133789062 234.4879455566406 1995.891723632812 C 234.3260650634766 1995.158447265625 234.5259552001953 1992.7578125 237.6835174560547 1984.917846679688 C 239.2201538085938 1981.102416992188 240.8392944335938 1977.544189453125 241.3145599365234 1976.510864257812 C 242.4624176025391 1976.556274414062 246.4743957519531 1976.765502929688 250.7861480712891 1977.577392578125 C 257.4114990234375 1978.824951171875 261.7345275878906 1980.91015625 263.2879028320312 1983.607666015625 C 264.3802795410156 1985.504638671875 264.8932495117188 1987.650146484375 264.8125915527344 1989.984741210938 C 264.7409362792969 1992.058349609375 264.1833801269531 1994.285034179688 263.2002258300781 1996.423950195312 C 261.0862731933594 2001.023071289062 257.2200622558594 2004.801391601562 254.0072479248047 2005.407958984375 C 253.6190643310547 2005.481201171875 253.1413116455078 2005.518432617188 252.5872650146484 2005.518432617188 Z" stroke="none"/>
      <path d="M 241.6289367675781 1977.02490234375 C 241.0289306640625 1978.337768554688 239.5511779785156 1981.618408203125 238.1444396972656 1985.111694335938 C 234.8335571289062 1993.33349609375 234.8823547363281 1995.359008789062 234.9761657714844 1995.783935546875 C 235.2668762207031 1997.100463867188 236.0849304199219 1998.371704101562 237.4076232910156 1999.562255859375 C 238.6273498535156 2000.660278320312 240.2347106933594 2001.659545898438 242.1850280761719 2002.5322265625 C 246.0229187011719 2004.249633789062 250.1749572753906 2005.018432617188 252.5873107910156 2005.018432617188 C 253.1102447509766 2005.018432617188 253.5567779541016 2004.984130859375 253.9144744873047 2004.916625976562 C 255.3470153808594 2004.646240234375 257.0128784179688 2003.650512695312 258.605224609375 2002.112915039062 C 260.2630004882812 2000.512329101562 261.7335205078125 1998.417724609375 262.7459106445312 1996.215209960938 C 263.70166015625 1994.135864257812 264.2435302734375 1991.975463867188 264.3128967285156 1989.967407226562 C 264.3902587890625 1987.727661132812 263.899658203125 1985.671875 262.8546142578125 1983.857177734375 C 261.3773193359375 1981.291748046875 257.1764526367188 1979.291015625 250.7061004638672 1978.071166992188 C 246.7706451416016 1977.3291015625 243.0828552246094 1977.09326171875 241.6289367675781 1977.02490234375 M 240.9999084472656 1975.999755859375 C 240.9999084472656 1975.999755859375 259.7359008789062 1976.437377929688 263.72119140625 1983.358154296875 C 268.9140930175781 1992.375732421875 260.3331909179688 2004.722412109375 254.1000061035156 2005.899291992188 C 253.6783447265625 2005.978881835938 253.1672058105469 2006.018432617188 252.5873107910156 2006.018432617188 C 247.1077728271484 2006.018432617188 235.43408203125 2002.495727539062 233.9996948242188 1995.99951171875 C 233.2528076171875 1992.616455078125 240.9999084472656 1975.999755859375 240.9999084472656 1975.999755859375 Z" stroke="none" fill="#0b94fc"/>
    </g>
    <path id="形状_603_拷贝_5" data-name="形状 603 拷贝 5" d="M248.335,1986.457s4.558-1.6,6.209,1.125-1.7,6.126-3.314,6.306a4.038,4.038,0,0,1-4.219-2.169C245.913,1989.388,248.335,1986.457,248.335,1986.457Z" transform="translate(-47.725 434.012)" fill="#0b94fc"/>
  </g>
</svg>
