<svg xmlns="http://www.w3.org/2000/svg" width="16" height="16" viewBox="0 0 16 16">
  <path id="tishi-6" d="M72,64a8,8,0,1,0,8,8,8,8,0,0,0-8-8Zm1.254,10.943c-.6.906-1.218,1.606-2.251,1.606-.705-.115-1-.622-.842-1.136l1.329-4.4a.208.208,0,0,0-.119-.258c-.1-.035-.29.093-.457.274l-.8.967a4.269,4.269,0,0,1,0-.538,3.432,3.432,0,0,1,2.268-1.622.905.905,0,0,1,.831,1.138L71.868,75.4a.208.208,0,0,0,.126.233c.1.035.305-.093.472-.275l.8-.966A4.421,4.421,0,0,1,73.253,74.943Zm-.178-5.751a.915.915,0,1,1,.92-.915A.892.892,0,0,1,73.075,69.193Z" transform="translate(-64 -64)" fill="#2198f0"/>
</svg>
