<svg xmlns="http://www.w3.org/2000/svg" width="32.292" height="25.996" viewBox="0 0 32.292 25.996"><defs><style>.a{fill:#848486;}</style></defs><path class="a" d="M73.04,157.868a3.877,3.877,0,0,0,0,7.753,3.645,3.645,0,0,0,3.877-3.877A3.825,3.825,0,0,0,73.04,157.868Zm0,6.3a2.423,2.423,0,1,1,2.423-2.423A2.484,2.484,0,0,1,73.04,164.164ZM93.386,152.7H66.907A2.893,2.893,0,0,0,64,155.607V175.79a2.893,2.893,0,0,0,2.907,2.907H93.386a2.893,2.893,0,0,0,2.907-2.907V155.607a3.148,3.148,0,0,0-3.069-2.907Zm.97,22.6a1.618,1.618,0,0,1-1.616,1.616H67.39a1.618,1.618,0,0,1-1.616-1.616v-1.291l6.942-3.877,4.522,2.582a1.565,1.565,0,0,0,1.778-.325l10.01-8.716,5.33,2.907Zm0-10.818-5.005-2.744c-.808-.325-1.616.645-1.778.645l-9.848,8.4-4.035-2.261a1.353,1.353,0,0,0-1.453-.325l-6.462,3.552V156.09a1.618,1.618,0,0,1,1.616-1.616H92.9a1.618,1.618,0,0,1,1.616,1.616v8.395Zm0,0" transform="translate(-64 -152.7)"/></svg>