<?xml version="1.0" standalone="no"?><!DOCTYPE svg PUBLIC "-//W3C//DTD SVG 1.1//EN" "http://www.w3.org/Graphics/SVG/1.1/DTD/svg11.dtd"><svg class="icon" width="16px" height="16.00px" viewBox="0 0 1024 1024" version="1.1" xmlns="http://www.w3.org/2000/svg"><path d="M512 0a512 512 0 1 0 512 512A512.647282 512.647282 0 0 0 512 0z m0 958.624526a447.271808 447.271808 0 1 1 447.271808-447.271808 447.271808 447.271808 0 0 1-447.271808 447.271808z" fill="#59ace2" /><path d="M273.152971 512m-39.484197 0a39.484197 39.484197 0 1 0 78.968394 0 39.484197 39.484197 0 1 0-78.968394 0Z" fill="#59ace2" /><path d="M512 512m-39.484197 0a39.484197 39.484197 0 1 0 78.968394 0 39.484197 39.484197 0 1 0-78.968394 0Z" fill="#59ace2" /><path d="M750.199747 512m-39.484197 0a39.484197 39.484197 0 1 0 78.968394 0 39.484197 39.484197 0 1 0-78.968394 0Z" fill="#59ace2" /></svg>