<svg xmlns="http://www.w3.org/2000/svg" width="61" height="61" viewBox="0 0 61 61">
  <g id="shangchuan-2" transform="translate(0.5 0.5)">
    <path id="路径_2112" data-name="路径 2112" d="M0,0,0,0H60V60H0V0Z" fill="#606060" stroke="#707070" stroke-width="1" stroke-dasharray="4" opacity="0.3"/>
    <path id="路径_2113" data-name="路径 2113" d="M162.909,676.273a1.364,1.364,0,0,1,1.364-1.364h38.182a1.364,1.364,0,0,1,1.364,1.364v4.091a1.364,1.364,0,0,1-1.364,1.364H164.273a1.364,1.364,0,0,1-1.364-1.364Z" transform="translate(-153.364 -633.364)" fill="#247ade"/>
    <path id="路径_2114" data-name="路径 2114" d="M271.427,163.516l13.019,13.016a2.046,2.046,0,0,1-2.894,2.894l-9.525-9.528v18.927a2.045,2.045,0,0,1-4.091,0V169.9l-9.525,9.526a2.046,2.046,0,1,1-2.894-2.894l13.019-13.016a2.045,2.045,0,0,1,2.894,0Z" transform="translate(-239.982 -151.371)" fill="#247ade"/>
  </g>
</svg>
