<svg xmlns="http://www.w3.org/2000/svg" width="153" height="34" viewBox="0 0 153 34">
  <g id="组_12166" data-name="组 12166" transform="translate(-24165 1771.338)">
    <g id="路径_2144" data-name="路径 2144" transform="translate(24165 -1771.338)" fill="rgba(42,159,246,0.09)">
      <path d="M 149 33.5 L 4 33.5 C 2.070100069046021 33.5 0.5 31.92989921569824 0.5 30 L 0.5 4 C 0.5 2.070100069046021 2.070100069046021 0.5 4 0.5 L 149 0.5 C 150.9299011230469 0.5 152.5 2.070100069046021 152.5 4 L 152.5 30 C 152.5 31.92989921569824 150.9299011230469 33.5 149 33.5 Z" stroke="none"/>
      <path d="M 4 1 C 2.345794677734375 1 1 2.345800399780273 1 4 L 1 30 C 1 31.65419960021973 2.345794677734375 33 4 33 L 149 33 C 150.6542053222656 33 152 31.65419960021973 152 30 L 152 4 C 152 2.345800399780273 150.6542053222656 1 149 1 L 4 1 M 4 0 L 149 0 C 151.2091369628906 0 153 1.790859222412109 153 4 L 153 30 C 153 32.20914077758789 151.2091369628906 34 149 34 L 4 34 C 1.790863037109375 34 0 32.20914077758789 0 30 L 0 4 C 0 1.790859222412109 1.790863037109375 0 4 0 Z" stroke="none" fill="#2a9ff6"/>
    </g>
    <g id="组_12162" data-name="组 12162" transform="translate(5.152)">
      <g id="组_12165" data-name="组 12165">
        <text id="下载模版" transform="translate(24218.738 -1749.338)" fill="#2a9ff6" font-size="14" font-family="PingFangSC-Regular, PingFang SC"><tspan x="0" y="0">下载模版</tspan></text>
        <g id="xiazaimoban" transform="translate(24099.848 -1827.864)">
          <path id="路径_2145" data-name="路径 2145" d="M202.949,168.3a.65.65,0,0,0-.65.65v13.277a.65.65,0,0,0,.65.65h11.8a.65.65,0,0,0,.65-.65V168.949a.65.65,0,0,0-.65-.65Zm0-1.3h11.8a1.949,1.949,0,0,1,1.949,1.949v13.277a1.949,1.949,0,0,1-1.949,1.949h-11.8A1.949,1.949,0,0,1,201,182.226V168.949A1.949,1.949,0,0,1,202.949,167Z" transform="translate(-100.769 -100.769)" fill="#2a9ff6"/>
          <path id="路径_2146" data-name="路径 2146" d="M100.835,79.876v1.3h-.885A1.949,1.949,0,0,1,98,79.226V65.949A1.949,1.949,0,0,1,99.949,64h11.977a1.949,1.949,0,0,1,1.949,1.949v1.024h-1.3V65.949a.65.65,0,0,0-.65-.65H99.949a.65.65,0,0,0-.65.65V79.226a.65.65,0,0,0,.65.65Z" fill="#2a9ff6"/>
          <path id="路径_2147" data-name="路径 2147" d="M400.191,522.337a.65.65,0,0,1,.917-.92l2.82,2.811a.65.65,0,1,1-.917.92Z" transform="translate(-295.459 -447.324)" fill="#2a9ff6"/>
          <path id="路径_2148" data-name="路径 2148" d="M533.711,522.337a.65.65,0,1,0-.917-.92l-2.82,2.811a.65.65,0,1,0,.917.92Z" transform="translate(-422.431 -447.324)" fill="#2a9ff6"/>
          <path id="路径_2149" data-name="路径 2149" d="M349.018,321.949a.65.65,0,1,0,1.3,0v-7.3a.65.65,0,1,0-1.3,0Zm-3.368,2.859a.65.65,0,1,1,0-1.3h8.014a.65.65,0,1,1,0,1.3Z" transform="translate(-241.65 -244.585)" fill="#2a9ff6"/>
        </g>
      </g>
    </g>
  </g>
</svg>
