<svg xmlns="http://www.w3.org/2000/svg" width="19.166" height="19.166" viewBox="0 0 19.166 19.166">
  <g id="组_7823" data-name="组 7823" transform="translate(-1877 -262)">
    <path id="路径_274" data-name="路径 274" d="M9.583,0A9.583,9.583,0,1,1,0,9.583,9.583,9.583,0,0,1,9.583,0Z" transform="translate(1877 262)" fill="#6a6969"/>
    <path id="chahao" d="M72.444,72.161a.841.841,0,0,1-1.19,1.189L67.9,69.994,64.542,73.35a.841.841,0,0,1-1.19-1.189L66.708,68.8l-3.356-3.356a.841.841,0,0,1,1.19-1.189L67.9,67.615l3.356-3.356a.841.841,0,0,1,1.19,1.189L69.087,68.8Z" transform="translate(1818.685 202.779)" fill="#fff"/>
  </g>
</svg>
