<svg xmlns="http://www.w3.org/2000/svg" width="21.001" height="21.002" viewBox="0 0 21.001 21.002">
  <g id="yiliaohangyedeICON-" transform="translate(-61.549 -59.499)">
    <path id="路径_1758" data-name="路径 1758" d="M81.987,69.355l-1.033.009a8.908,8.908,0,0,0-.79-3.093l.906-.488a.558.558,0,1,0-.528-.984l-.913.491A8.978,8.978,0,0,0,77.2,62.707l.542-.881a.559.559,0,1,0-.951-.586l-.537.874a8.849,8.849,0,0,0-3.717-1.026l-.009-1.035a.558.558,0,0,0-1.117.009l.007,1.035a8.861,8.861,0,0,0-3.626,1.051l-.544-.869a.559.559,0,0,0-.948.593l.549.874a9,9,0,0,0-2.39,2.565l-.913-.486a.554.554,0,0,0-.755.229.561.561,0,0,0,.229.757l.911.486a8.852,8.852,0,0,0-.79,3.222l-1.035.009a.558.558,0,0,0,.012,1.117l1.033-.009a8.857,8.857,0,0,0,.79,3.093l-.906.488a.558.558,0,1,0,.528.984l.911-.491A8.987,8.987,0,0,0,66.9,77.294l-.544.881a.561.561,0,0,0,.953.586l.537-.874a8.85,8.85,0,0,0,3.717,1.026l.009,1.035a.558.558,0,1,0,1.117-.009L72.684,78.9a8.871,8.871,0,0,0,3.628-1.051l.544.869a.558.558,0,0,0,.946-.593l-.549-.874a9.013,9.013,0,0,0,2.392-2.565l.911.486a.559.559,0,1,0,.526-.986l-.911-.486a8.807,8.807,0,0,0,.792-3.222L82,70.472a.558.558,0,1,0-.009-1.117Zm-2.6,3.927a8.074,8.074,0,0,1-2.6,3.212,8.563,8.563,0,0,1-.944.6,7.992,7.992,0,0,1-3.159.92c-.185.014-.369.03-.558.033s-.374-.012-.558-.023a7.768,7.768,0,0,1-4.186-1.49,8.128,8.128,0,0,1-2.652-3.224,7.959,7.959,0,0,1-.682-2.677c-.016-.187-.033-.371-.035-.558s.014-.374.023-.558a7.988,7.988,0,0,1,.687-2.794,8.466,8.466,0,0,1,.526-.986,8.139,8.139,0,0,1,2.079-2.226,8.228,8.228,0,0,1,.944-.6,7.98,7.98,0,0,1,3.159-.92c.185-.014.369-.03.558-.033s.371.012.558.023a8.018,8.018,0,0,1,7.52,7.392c.014.187.033.371.033.558s-.012.374-.023.558A7.934,7.934,0,0,1,79.384,73.283Z" transform="translate(0 0)" fill="#fff"/>
    <path id="路径_1759" data-name="路径 1759" d="M286.582,339.482m-2.682,0a2.682,2.682,0,1,0,2.682-2.682A2.682,2.682,0,0,0,283.9,339.482Z" transform="translate(-217.157 -270.823)" fill="#fff"/>
    <path id="路径_1760" data-name="路径 1760" d="M457.887,625.587m-1.787,0a1.787,1.787,0,1,0,1.787-1.787A1.787,1.787,0,0,0,456.1,625.587Z" transform="translate(-385.334 -551.118)" fill="#fff"/>
    <path id="路径_1761" data-name="路径 1761" d="M648.641,452.941m-1.341,0a1.341,1.341,0,1,0,1.341-1.341A1.341,1.341,0,0,0,647.3,452.941Z" transform="translate(-572.067 -382.941)" fill="#fff"/>
    <path id="路径_1762" data-name="路径 1762" d="M590.446,318.146m-.446,0a.446.446,0,1,0,.446-.446A.446.446,0,0,0,590,318.146Z" transform="translate(-516.106 -252.169)" fill="#fff"/>
    <path id="路径_1763" data-name="路径 1763" d="M322.646,700.746m-.446,0a.446.446,0,1,0,.446-.446A.446.446,0,0,0,322.2,700.746Z" transform="translate(-254.562 -625.831)" fill="#fff"/>
  </g>
</svg>
