<?xml version="1.0" encoding="utf-8"?>
<!-- Generator: Adobe Illustrator 23.0.2, SVG Export Plug-In . SVG Version: 6.00 Build 0)  -->
<svg version="1.1" id="图层_1" xmlns="http://www.w3.org/2000/svg" xmlns:xlink="http://www.w3.org/1999/xlink" x="0px" y="0px"
	 viewBox="0 0 15 15" style="enable-background:new 0 0 15 15;" xml:space="preserve">
<style type="text/css">
	.st0{fill:#4A647F;}
</style>
<g>
	<g>
		<path class="st0" d="M12.8,2.2c-2.9-2.9-7.6-2.9-10.4,0s-2.9,7.6,0,10.4s7.6,2.9,10.4,0S15.6,5.1,12.8,2.2z M12.2,12.1
			c-2.6,2.6-6.7,2.6-9.3,0c-2.6-2.6-2.6-6.7,0-9.3s6.7-2.6,9.3,0S14.8,9.5,12.2,12.1L12.2,12.1z"/>
		<path class="st0" d="M8.1,7.4l2.8-2.8c0.2-0.2,0.2-0.4,0-0.6c-0.2-0.2-0.4-0.2-0.6,0L7.5,6.9L4.7,4C4.6,3.9,4.3,3.9,4.2,4
			C4,4.2,4,4.4,4.2,4.6L7,7.4l-2.8,2.8c-0.2,0.2-0.2,0.4,0,0.6s0.4,0.2,0.6,0L7.5,8l2.8,2.8c0.2,0.2,0.4,0.2,0.6,0
			c0.2-0.2,0.2-0.4,0-0.6L8.1,7.4z"/>
	</g>
</g>
</svg>
