<svg xmlns="http://www.w3.org/2000/svg" width="14" height="15.556" viewBox="0 0 14 15.556">
  <path id="shanchu-6" d="M129.361,88.444h-.778a.583.583,0,0,1,0-1.167h12.833a.583.583,0,0,1,0,1.167H130.528V98.75a.972.972,0,0,0,.972.972h7a.972.972,0,0,0,.972-.972V90.194a.583.583,0,1,1,1.167,0V98.75a2.139,2.139,0,0,1-2.139,2.139h-7a2.139,2.139,0,0,1-2.139-2.139Zm4.083-1.944a.583.583,0,0,1,0-1.167h3.111a.583.583,0,0,1,0,1.167Zm-.583,5.25a.583.583,0,1,1,1.167,0v4.667a.583.583,0,1,1-1.167,0Zm3.111,0a.583.583,0,1,1,1.167,0v4.667a.583.583,0,1,1-1.167,0Z" transform="translate(-128 -85.333)" fill="#fff"/>
</svg>
