<svg xmlns="http://www.w3.org/2000/svg" width="46" height="46" viewBox="0 0 46 46">
  <g id="组_2614" data-name="组 2614" transform="translate(-134 -1131)">
    <g id="椭圆_2" data-name="椭圆 2" transform="translate(134 1131)" fill="#0b94fc">
      <path d="M 22.9999942779541 45.5 C 19.96229362487793 45.5 17.01572418212891 44.90517044067383 14.24213409423828 43.73204040527344 C 11.56291389465332 42.59883117675781 9.156623840332031 40.97642135620117 7.090104103088379 38.9099006652832 C 5.023574352264404 36.84337997436523 3.401174306869507 34.43709182739258 2.267964363098145 31.75786018371582 C 1.094834327697754 28.9842700958252 0.5000042915344238 26.03770065307617 0.5000042915344238 23 C 0.5000042915344238 19.96229934692383 1.094834327697754 17.0157299041748 2.267964363098145 14.24213981628418 C 3.401174306869507 11.56291007995605 5.023574352264404 9.156620025634766 7.090104103088379 7.090099811553955 C 9.156623840332031 5.023580074310303 11.56291389465332 3.401170015335083 14.24213409423828 2.267960071563721 C 17.01572418212891 1.09483003616333 19.96229362487793 0.5 22.9999942779541 0.5 C 26.03769493103027 0.5 28.9842643737793 1.09483003616333 31.75785446166992 2.267960071563721 C 34.43707275390625 3.401170015335083 36.84337615966797 5.023580074310303 38.90989303588867 7.090099811553955 C 40.97641372680664 9.156620025634766 42.59882354736328 11.56291007995605 43.73203277587891 14.24213981628418 C 44.9051628112793 17.0157299041748 45.49999237060547 19.96229934692383 45.49999237060547 23 C 45.49999237060547 26.03770065307617 44.9051628112793 28.9842700958252 43.73203277587891 31.75786018371582 C 42.59882354736328 34.43709182739258 40.97641372680664 36.84337997436523 38.90989303588867 38.9099006652832 C 36.84337615966797 40.97642135620117 34.43707275390625 42.59883117675781 31.75785446166992 43.73204040527344 C 28.9842643737793 44.90517044067383 26.03769493103027 45.5 22.9999942779541 45.5 Z" stroke="none"/>
      <path d="M 22.9999942779541 1 C 20.02957344055176 1 17.14853477478027 1.581539154052734 14.43691444396973 2.728458404541016 C 11.81728363037109 3.836471557617188 9.464412689208984 5.422889709472656 7.443645477294922 7.443649291992188 C 5.422885894775391 9.464420318603516 3.836463928222656 11.81729125976562 2.72845458984375 14.43691062927246 C 1.581535339355469 17.14854049682617 0.9999961853027344 20.02957916259766 0.9999961853027344 23 C 0.9999961853027344 25.97042083740234 1.581535339355469 28.85145950317383 2.72845458984375 31.56309127807617 C 3.836463928222656 34.18270874023438 5.422885894775391 36.53557968139648 7.443645477294922 38.55635070800781 C 9.464412689208984 40.57711029052734 11.81728363037109 42.16352844238281 14.43691444396973 43.27154159545898 C 17.14853477478027 44.41846084594727 20.02957344055176 45 22.9999942779541 45 C 25.97041511535645 45 28.85145378112793 44.41846084594727 31.56307411193848 43.27154159545898 C 34.18269348144531 42.16352844238281 36.53557586669922 40.57711029052734 38.55633544921875 38.55635070800781 C 40.57709503173828 36.53559112548828 42.16351318359375 34.18270874023438 43.27152252197266 31.56309127807617 C 44.4184455871582 28.85145950317383 44.99998474121094 25.97042083740234 44.99998474121094 23 C 44.99998474121094 20.02957916259766 44.4184455871582 17.14854049682617 43.27152252197266 14.43691062927246 C 42.16351318359375 11.81729125976562 40.57709503173828 9.464408874511719 38.55633544921875 7.443649291992188 C 36.53557586669922 5.422889709472656 34.18269348144531 3.836471557617188 31.56307411193848 2.728458404541016 C 28.85145378112793 1.581539154052734 25.97041511535645 1 22.9999942779541 1 M 22.9999942779541 0 C 35.70253372192383 0 45.99998474121094 10.29745101928711 45.99998474121094 23 C 45.99998474121094 35.70254898071289 35.70253372192383 46 22.9999942779541 46 C 10.29745483398438 46 -3.814697265625e-06 35.70254898071289 -3.814697265625e-06 23 C -3.814697265625e-06 10.29745101928711 10.29745483398438 0 22.9999942779541 0 Z" stroke="none" fill="#0b94fc"/>
    </g>
    <g id="组_2484" data-name="组 2484" transform="translate(2 2.658)">
      <g id="矩形_1163" data-name="矩形 1163" transform="translate(138 1140.817)" fill="#48affd" stroke="#fff" stroke-width="1.5">
        <rect width="14.923" height="22.823" rx="2" stroke="none"/>
        <rect x="0.75" y="0.75" width="13.423" height="21.323" rx="1.25" fill="none"/>
      </g>
      <g id="矩形_1164" data-name="矩形 1164" transform="translate(157.556 1140.817)" fill="#48affd" stroke="#fff" stroke-width="1.5">
        <rect width="14.923" height="22.823" rx="2" stroke="none"/>
        <rect x="0.75" y="0.75" width="13.423" height="21.323" rx="1.25" fill="none"/>
      </g>
      <text id="B" transform="translate(161.068 1155.342)" fill="#fff" font-size="11" font-family="PingFangSC-Regular, PingFang SC"><tspan x="0" y="0">B</tspan></text>
      <text id="A" transform="translate(141.511 1155.342)" fill="#fff" font-size="11" font-family="PingFangSC-Regular, PingFang SC"><tspan x="0" y="0">A</tspan></text>
      <path id="路径_1745" data-name="路径 1745" d="M0,0V26.283" transform="translate(155.24 1139.5)" fill="none" stroke="#fff" stroke-linecap="round" stroke-width="1" stroke-dasharray="2 2"/>
    </g>
  </g>
</svg>
