<svg xmlns="http://www.w3.org/2000/svg" width="46" height="46" viewBox="0 0 46 46">
  <g id="组_2593" data-name="组 2593" transform="translate(-348 -2179)">
    <g id="组_2485" data-name="组 2485" transform="translate(214 1048)">
      <g id="椭圆_2" data-name="椭圆 2" transform="translate(134 1131)" fill="none">
        <path d="M23,0A23,23,0,1,1,0,23,23,23,0,0,1,23,0Z" stroke="none"/>
        <path d="M 22.9999942779541 2 C 20.16413497924805 2 17.41416358947754 2.554958343505859 14.82646369934082 3.649459838867188 C 12.32603454589844 4.707050323486328 10.08000564575195 6.221511840820312 8.150753021240234 8.150760650634766 C 6.221504211425781 10.08000946044922 4.707054138183594 12.3260383605957 3.649456024169922 14.82646942138672 C 2.554954528808594 17.41415977478027 1.999996185302734 20.16414070129395 1.999996185302734 23 C 1.999996185302734 25.83585929870605 2.554954528808594 28.58584022521973 3.649456024169922 31.17353057861328 C 4.707054138183594 33.67395782470703 6.221504211425781 35.91999053955078 8.150753021240234 37.84923934936523 C 10.08000564575195 39.77848815917969 12.32603454589844 41.29294967651367 14.82646369934082 42.35054016113281 C 17.41416358947754 43.44504165649414 20.16413497924805 44 22.9999942779541 44 C 25.83585357666016 44 28.58582496643066 43.44504165649414 31.17352294921875 42.35054016113281 C 33.67394256591797 41.29294967651367 35.91998291015625 39.77848815917969 37.84922409057617 37.84923934936523 C 39.77847290039062 35.91999053955078 41.29293441772461 33.67395782470703 42.35052490234375 31.17353057861328 C 43.44502258300781 28.58584022521973 43.99998474121094 25.83585929870605 43.99998474121094 23 C 43.99998474121094 20.16414070129395 43.44502258300781 17.41415977478027 42.35052490234375 14.82646942138672 C 41.29293441772461 12.3260383605957 39.77847290039062 10.08000946044922 37.84922409057617 8.150760650634766 C 35.91998291015625 6.221511840820312 33.67394256591797 4.707050323486328 31.17352294921875 3.649459838867188 C 28.58582496643066 2.554958343505859 25.83585357666016 2 22.9999942779541 2 M 22.9999942779541 0 C 35.70253372192383 0 45.99998474121094 10.29745101928711 45.99998474121094 23 C 45.99998474121094 35.70254898071289 35.70253372192383 46 22.9999942779541 46 C 10.29745483398438 46 -3.814697265625e-06 35.70254898071289 -3.814697265625e-06 23 C -3.814697265625e-06 10.29745101928711 10.29745483398438 0 22.9999942779541 0 Z" stroke="none" fill="#0b94fc"/>
      </g>
      <g id="组_2484" data-name="组 2484" transform="translate(2 2.658)">
        <g id="矩形_1163" data-name="矩形 1163" transform="translate(139 1140.817)" fill="none" stroke="#0b94fc" stroke-width="1.5">
          <rect width="14.923" height="22.823" rx="2" stroke="none"/>
          <rect x="0.75" y="0.75" width="13.423" height="21.323" rx="1.25" fill="none"/>
        </g>
        <g id="矩形_1164" data-name="矩形 1164" transform="translate(156.556 1140.817)" fill="none" stroke="#0b94fc" stroke-width="1.5">
          <rect width="14.923" height="22.823" rx="2" stroke="none"/>
          <rect x="0.75" y="0.75" width="13.423" height="21.323" rx="1.25" fill="none"/>
        </g>
        <text id="B" transform="translate(160.068 1155.342)" fill="#0b94fc" font-size="11" font-family="PingFangSC-Regular, PingFang SC"><tspan x="0" y="0">B</tspan></text>
        <text id="A" transform="translate(142.511 1155.342)" fill="#0b94fc" font-size="11" font-family="PingFangSC-Regular, PingFang SC"><tspan x="0" y="0">A</tspan></text>
        <path id="路径_1745" data-name="路径 1745" d="M0,0V26.283" transform="translate(155.24 1139.5)" fill="none" stroke="#0b94fc" stroke-linecap="round" stroke-width="1" stroke-dasharray="2 2"/>
      </g>
    </g>
  </g>
</svg>
