<svg xmlns="http://www.w3.org/2000/svg" width="26.616" height="23.7" viewBox="0 0 26.616 23.7">
  <g id="组_12145" data-name="组 12145" transform="translate(713.616 -220) rotate(90)">
    <g id="charutupian" transform="translate(99.164 738.481) rotate(-90)">
      <path id="路径_2140" data-name="路径 2140" d="M137.316,351.793a.194.194,0,0,0-.093-.166l-2.092-1.275a.194.194,0,0,0-.251.043l-.922,1.123-.012.014a.194.194,0,0,1-.274,0l-3.067-3.058a.194.194,0,0,0-.268-.006l-2.273,2.07a.193.193,0,0,0-.064.144V353.9h9.316Z" transform="translate(-94.835 -217.745)" fill="#fff"/>
      <path id="路径_2141" data-name="路径 2141" d="M736.776,256.776m-.776,0a.776.776,0,1,0,.776-.776A.776.776,0,0,0,736,256.776Z" transform="translate(-695.46 -126.447)" fill="#fff"/>
      <path id="路径_2142" data-name="路径 2142" d="M32,128v9.316H43.645V128Zm10.869,8.54H32.776v-7.763H42.869Z" fill="#fff"/>
    </g>
    <path id="xuanzhuan" d="M85.214,17.286l-3.647.928a.786.786,0,1,0,0,1.571l2.39-.928A10.964,10.964,0,0,1,75,23.571a10.8,10.8,0,0,1-8.8-4.4.786.786,0,1,0-1.257.943,12.584,12.584,0,0,0,19.486.786v1.886a.786.786,0,0,0,1.571,0V18.071A.742.742,0,0,0,85.214,17.286Zm-16-11.142a.742.742,0,0,0-.786-.786l-2.39.928A10.755,10.755,0,0,1,75,1.571a11.244,11.244,0,0,1,8.8,4.4.786.786,0,1,0,1.257-.943,12.584,12.584,0,0,0-19.486-.786V2.357a.786.786,0,0,0-1.571,0V7.071a.742.742,0,0,0,.786.786l3.647-.928A.742.742,0,0,0,69.218,6.144Z" transform="matrix(0.998, 0.07, -0.07, 0.998, 157.91, 682.536)" fill="#fff"/>
  </g>
</svg>
