<svg xmlns="http://www.w3.org/2000/svg" width="28" height="23" viewBox="0 0 28 23">
  <g id="组_12141" data-name="组 12141" transform="translate(-1475 -564)">
    <g id="组_12140" data-name="组 12140" transform="translate(0 -57)">
      <path id="路径_2138" data-name="路径 2138" d="M12485.409-4408.13l-4.8-15.167,11.289,3.484,8.744-7.376,4.313,15.273Z" transform="translate(-11004.26 5050.66)" fill="none" stroke="#fff" stroke-width="1"/>
      <g id="椭圆_280" data-name="椭圆 280" transform="translate(1475 625)" fill="#353a43" stroke="#fff" stroke-width="1">
        <circle cx="2.5" cy="2.5" r="2.5" stroke="none"/>
        <circle cx="2.5" cy="2.5" r="2" fill="none"/>
      </g>
      <g id="椭圆_281" data-name="椭圆 281" transform="translate(1485 628)" fill="#353a43" stroke="#fff" stroke-width="1">
        <circle cx="2.5" cy="2.5" r="2.5" stroke="none"/>
        <circle cx="2.5" cy="2.5" r="2" fill="none"/>
      </g>
      <g id="椭圆_282" data-name="椭圆 282" transform="translate(1494 621)" fill="#353a43" stroke="#fff" stroke-width="1">
        <circle cx="2.5" cy="2.5" r="2.5" stroke="none"/>
        <circle cx="2.5" cy="2.5" r="2" fill="none"/>
      </g>
      <g id="椭圆_283" data-name="椭圆 283" transform="translate(1498 635)" fill="#353a43" stroke="#fff" stroke-width="1">
        <circle cx="2.5" cy="2.5" r="2.5" stroke="none"/>
        <circle cx="2.5" cy="2.5" r="2" fill="none"/>
      </g>
      <g id="椭圆_284" data-name="椭圆 284" transform="translate(1479 639)" fill="#353a43" stroke="#fff" stroke-width="1">
        <circle cx="2.5" cy="2.5" r="2.5" stroke="none"/>
        <circle cx="2.5" cy="2.5" r="2" fill="none"/>
      </g>
    </g>
    <g id="组_12139" data-name="组 12139" transform="translate(1487.783 573.5)">
      <path id="路径_2136" data-name="路径 2136" d="M555.545,626.652,554.8,621.8l4.574,1.782Zm.894-2.809.057.368.29-.233Z" transform="translate(-554.8 -621.8)" fill="#fff"/>
      <path id="路径_2137" data-name="路径 2137" d="M601.688,694.442a.646.646,0,0,1-.462-.192l-3.709-3.707a.655.655,0,0,1,.927-.927l3.707,3.707a.656.656,0,0,1,0,.927A.649.649,0,0,1,601.688,694.442Z" transform="translate(-596.455 -688.042)" fill="#fff"/>
    </g>
  </g>
</svg>
