<svg xmlns="http://www.w3.org/2000/svg" width="32" height="32" viewBox="0 0 32 32">
  <g id="cipankongjian" transform="translate(0 0)">
    <path id="路径_2125" data-name="路径 2125" d="M16,16,0,16A16,16,0,1,0,16,0,16,16,0,0,0,0,16Z" transform="translate(0 0)" fill="#3e3e3e"/>
    <path id="路径_2126" data-name="路径 2126" d="M231.771,267.036l-2.271-9.573A1.7,1.7,0,0,0,227.9,256H217.341a1.7,1.7,0,0,0-1.6,1.463l-2.271,9.573a1.679,1.679,0,0,0-.134.8,2.674,2.674,0,0,0,2.672,2.659h13.227a2.674,2.674,0,0,0,2.672-2.659A1.679,1.679,0,0,0,231.771,267.036Zm-11.356-6.382c0-.931,1.069-1.728,2.4-1.728s2.271.8,2.271,1.728c.8,0,1.6.4,1.6,1.064a1.358,1.358,0,0,1-1.47,1.2h-4.943c-.8,0-1.47-.532-1.47-1.064,0-.8.8-1.2,1.6-1.2Zm8.818,8.509H216.005a1.259,1.259,0,0,1-1.336-1.33,1.336,1.336,0,0,1,1.336-1.33h13.227a1.259,1.259,0,0,1,1.336,1.33C230.7,268.631,230.034,269.163,229.232,269.163Zm-.668-1.728a.4.4,0,1,0,.4.4A.353.353,0,0,0,228.564,267.435Zm-.8.4a.768.768,0,0,1,.8-.8.8.8,0,1,1,0,1.6A.768.768,0,0,1,227.763,267.833Z" transform="translate(-206.685 -247.981)" fill="#fff"/>
  </g>
</svg>
