<svg xmlns="http://www.w3.org/2000/svg" width="12.432" height="12.432" viewBox="0 0 12.432 12.432">
  <g id="daochu" transform="translate(-96 -95.979)">
    <path id="路径_1977" data-name="路径 1977" d="M102.216,95.979h-4.3A1.915,1.915,0,0,0,96,97.891V106.5a1.915,1.915,0,0,0,1.913,1.913h8.607a1.915,1.915,0,0,0,1.913-1.913v-1.435a.638.638,0,0,0-1.275,0V106.5a.638.638,0,0,1-.638.638H97.913a.638.638,0,0,1-.638-.638V97.891a.638.638,0,0,1,.638-.638h4.3a.638.638,0,1,0,0-1.275Z" transform="translate(0 0)" fill="#fff"/>
    <path id="路径_1978" data-name="路径 1978" d="M356.9,190.421v-1.764a.635.635,0,0,1,1.091-.449l2.823,3.015a.933.933,0,0,1,0,1.251l-2.823,3.015a.635.635,0,0,1-1.091-.449V193.4a.207.207,0,0,0-.192-.192,3.789,3.789,0,0,0-3.272,3.047c-.064.192-.353.192-.353-.032-.192-2.47,1.026-5.293,3.657-5.645.1.032.16-.064.16-.16Z" transform="translate(-253.271 -90.652)" fill="#fff"/>
  </g>
</svg>
