<svg xmlns="http://www.w3.org/2000/svg" width="15.038" height="15.898" viewBox="0 0 15.038 15.898">
  <g id="组_11460" data-name="组 11460" transform="translate(-112.5 -72.076)">
    <g id="组_11457" data-name="组 11457" transform="translate(113 73.384)">
      <path id="路径_2098" data-name="路径 2098" d="M377.3,99.9a7.3,7.3,0,0,1,6.395-2.842v3.079l4.026-4.737-4.026-4.5v2.842S378.01,93.268,377.3,99.9Z" transform="translate(-373.846 -90.9)" fill="#fff" stroke="rgba(0,0,0,0)" stroke-miterlimit="10" stroke-width="1"/>
      <path id="路径_2099" data-name="路径 2099" d="M111.682,110.777H98.318a.318.318,0,0,1-.318-.318V97.118a.318.318,0,0,1,.318-.318h6.551a.318.318,0,1,1,0,.635H98.635v12.709h12.729V103.79a.318.318,0,0,1,.636,0v6.671A.318.318,0,0,1,111.682,110.777Z" transform="translate(-98 -96.687)" fill="#fff" stroke="rgba(0,0,0,0)" stroke-miterlimit="10" stroke-width="1"/>
    </g>
  </g>
</svg>
