<svg xmlns="http://www.w3.org/2000/svg" width="12.43" height="12.432" viewBox="0 0 12.43 12.432">
  <g id="组_12276" data-name="组 12276" transform="translate(-1389.433 -95.784)">
    <path id="路径_2163" data-name="路径 2163" d="M102.215,95.979h4.3a1.915,1.915,0,0,1,1.912,1.913V106.5a1.915,1.915,0,0,1-1.912,1.913H97.912A1.915,1.915,0,0,1,96,106.5v-1.435a.637.637,0,1,1,1.275,0V106.5a.638.638,0,0,0,.637.638h8.605a.637.637,0,0,0,.637-.638V97.891a.637.637,0,0,0-.637-.638h-4.3a.638.638,0,0,1,0-1.275Z" transform="translate(1293.433 -0.195)" fill="#fff"/>
    <path id="路径_2164" data-name="路径 2164" d="M356.9,193.99v1.763a.635.635,0,0,0,1.09.449l2.823-3.013a.933.933,0,0,0,0-1.25l-2.823-3.013a.635.635,0,0,0-1.09.449v1.635a.207.207,0,0,1-.192.192,3.788,3.788,0,0,1-3.271-3.046c-.064-.192-.353-.192-.353.032-.192,2.468,1.026,5.29,3.656,5.642.1-.032.16.064.16.16Z" transform="translate(1037.374 -91.205)" fill="#fff"/>
  </g>
</svg>
