<svg xmlns="http://www.w3.org/2000/svg" width="46" height="46" viewBox="0 0 46 46">
  <g id="组_2597" data-name="组 2597" transform="translate(-97 -2180)">
    <g id="椭圆_2" data-name="椭圆 2" transform="translate(97 2180)" fill="none">
      <path d="M23,0A23,23,0,1,1,0,23,23,23,0,0,1,23,0Z" stroke="none"/>
      <path d="M 22.9999942779541 2 C 20.16413497924805 2 17.41416358947754 2.554958343505859 14.82646369934082 3.649459838867188 C 12.32603454589844 4.707050323486328 10.08000564575195 6.221511840820312 8.150753021240234 8.150760650634766 C 6.221504211425781 10.08000946044922 4.707054138183594 12.3260383605957 3.649456024169922 14.82646942138672 C 2.554954528808594 17.41415977478027 1.999996185302734 20.16414070129395 1.999996185302734 23 C 1.999996185302734 25.83585929870605 2.554954528808594 28.58584022521973 3.649456024169922 31.17353057861328 C 4.707054138183594 33.67395782470703 6.221504211425781 35.91999053955078 8.150753021240234 37.84923934936523 C 10.08000564575195 39.77848815917969 12.32603454589844 41.29294967651367 14.82646369934082 42.35054016113281 C 17.41416358947754 43.44504165649414 20.16413497924805 44 22.9999942779541 44 C 25.83585357666016 44 28.58582496643066 43.44504165649414 31.17352294921875 42.35054016113281 C 33.67394256591797 41.29294967651367 35.91998291015625 39.77848815917969 37.84922409057617 37.84923934936523 C 39.77847290039062 35.91999053955078 41.29293441772461 33.67395782470703 42.35052490234375 31.17353057861328 C 43.44502258300781 28.58584022521973 43.99998474121094 25.83585929870605 43.99998474121094 23 C 43.99998474121094 20.16414070129395 43.44502258300781 17.41415977478027 42.35052490234375 14.82646942138672 C 41.29293441772461 12.3260383605957 39.77847290039062 10.08000946044922 37.84922409057617 8.150760650634766 C 35.91998291015625 6.221511840820312 33.67394256591797 4.707050323486328 31.17352294921875 3.649459838867188 C 28.58582496643066 2.554958343505859 25.83585357666016 2 22.9999942779541 2 M 22.9999942779541 0 C 35.70253372192383 0 45.99998474121094 10.29745101928711 45.99998474121094 23 C 45.99998474121094 35.70254898071289 35.70253372192383 46 22.9999942779541 46 C 10.29745483398438 46 -3.814697265625e-06 35.70254898071289 -3.814697265625e-06 23 C -3.814697265625e-06 10.29745101928711 10.29745483398438 0 22.9999942779541 0 Z" stroke="none" fill="#0b94fc"/>
    </g>
    <circle id="椭圆_242" data-name="椭圆 242" cx="3.1" cy="3.1" r="3.1" transform="translate(101.9 2192.5)" fill="#0b94fc"/>
    <circle id="椭圆_243" data-name="椭圆 243" cx="3.1" cy="3.1" r="3.1" transform="translate(128.7 2188.8)" fill="#0b94fc"/>
    <circle id="椭圆_244" data-name="椭圆 244" cx="3.1" cy="3.1" r="3.1" transform="translate(113.4 2198)" fill="#0b94fc"/>
    <circle id="椭圆_245" data-name="椭圆 245" cx="2.5" cy="2.5" r="2.5" transform="translate(117.1 2184.9)" fill="#0b94fc"/>
    <circle id="椭圆_246" data-name="椭圆 246" cx="2.5" cy="2.5" r="2.5" transform="translate(134.6 2198.6)" fill="#0b94fc"/>
    <circle id="椭圆_247" data-name="椭圆 247" cx="1.8" cy="1.8" r="1.8" transform="translate(126.5 2206.8)" fill="#0b94fc"/>
    <circle id="椭圆_248" data-name="椭圆 248" cx="1.3" cy="1.3" r="1.3" transform="translate(110.8 2213.7)" fill="#0b94fc"/>
    <circle id="椭圆_249" data-name="椭圆 249" cx="2.5" cy="2.5" r="2.5" transform="translate(101.6 2206.2)" fill="#0b94fc"/>
    <path id="路径_1637" data-name="路径 1637" d="M11.9,13.8a29.151,29.151,0,0,1,8-4.8" transform="translate(95.6 2178.6)" fill="none" stroke="#0b94fc" stroke-miterlimit="10" stroke-width="1"/>
    <path id="路径_1638" data-name="路径 1638" d="M27.9,9a17.063,17.063,0,0,1,5.3,2" transform="translate(95.6 2178.6)" fill="none" stroke="#0b94fc" stroke-miterlimit="10" stroke-width="1"/>
    <path id="路径_1639" data-name="路径 1639" d="M39,15.6s1.6,2.2,1.6,3.3" transform="translate(95.6 2178.6)" fill="none" stroke="#0b94fc" stroke-miterlimit="10" stroke-width="1"/>
    <path id="路径_1640" data-name="路径 1640" d="M41.5,26.1s-1.4,3.4-6.3,4.1" transform="translate(95.6 2178.6)" fill="none" stroke="#0b94fc" stroke-miterlimit="10" stroke-width="1"/>
    <path id="路径_1641" data-name="路径 1641" d="M13.9,16.4S25.7,14.9,31.3,14" transform="translate(95.6 2178.6)" fill="none" stroke="#0b94fc" stroke-miterlimit="10" stroke-width="1"/>
    <line id="直线_21" data-name="直线 21" x1="1.6" y2="5" transform="translate(117.5 2191.5)" fill="none" stroke="#0b94fc" stroke-miterlimit="10" stroke-width="1"/>
    <line id="直线_22" data-name="直线 22" x2="3.7" y2="1.8" transform="translate(109 2197.2)" fill="none" stroke="#0b94fc" stroke-miterlimit="10" stroke-width="1"/>
    <line id="直线_23" data-name="直线 23" x1="5.6" y2="3.9" transform="translate(107.5 2202.8)" fill="none" stroke="#0b94fc" stroke-miterlimit="10" stroke-width="1"/>
    <line id="直线_24" data-name="直线 24" x2="17.3" transform="translate(108 2208.7)" fill="none" stroke="#0b94fc" stroke-miterlimit="10" stroke-width="1"/>
    <path id="路径_1642" data-name="路径 1642" d="M19.9,26.1A17.691,17.691,0,0,0,17.5,34" transform="translate(95.6 2178.6)" fill="none" stroke="#0b94fc" stroke-miterlimit="10" stroke-width="1"/>
    <line id="直线_25" data-name="直线 25" x2="12.3" transform="translate(121.2 2201.1)" fill="none" stroke="#0b94fc" stroke-miterlimit="10" stroke-width="1"/>
    <path id="路径_1643" data-name="路径 1643" d="M34.9,17.9s0,7.3-2.7,8.8" transform="translate(95.6 2178.6)" fill="none" stroke="#0b94fc" stroke-miterlimit="10" stroke-width="1"/>
    <line id="直线_26" data-name="直线 26" x2="5.6" y2="4.5" transform="translate(120.1 2202.8)" fill="none" stroke="#0b94fc" stroke-miterlimit="10" stroke-width="1"/>
    <path id="路径_1644" data-name="路径 1644" d="M9.9,33.3s2.8,3.1,4,3.1" transform="translate(95.6 2178.6)" fill="none" stroke="#0b94fc" stroke-miterlimit="10" stroke-width="1"/>
    <path id="路径_1645" data-name="路径 1645" d="M30.9,32.4S20.2,35.8,21.5,45" transform="translate(95.6 2178.6)" fill="none" stroke="#0b94fc" stroke-miterlimit="10" stroke-width="1"/>
    <path id="路径_1646" data-name="路径 1646" d="M19.9,35.6s.3,6.1-1.7,9.1" transform="translate(95.6 2178.6)" fill="none" stroke="#0b94fc" stroke-miterlimit="10" stroke-width="1"/>
    <path id="路径_1647" data-name="路径 1647" d="M7.5,20.4s-1,4.4,0,5.8" transform="translate(95.6 2178.6)" fill="none" stroke="#0b94fc" stroke-miterlimit="10" stroke-width="1"/>
  </g>
</svg>
