<svg xmlns="http://www.w3.org/2000/svg" width="46" height="46" viewBox="0 0 46 46">
  <g id="组_2611" data-name="组 2611" transform="translate(-52 -1018)">
    <path id="椭圆_2" data-name="椭圆 2" d="M23,0A23,23,0,1,1,0,23,23,23,0,0,1,23,0Z" transform="translate(52 1018)" fill="#0b94fc"/>
    <g id="人工" transform="translate(50.6 1016.6)">
      <circle id="椭圆_242" data-name="椭圆 242" cx="3.1" cy="3.1" r="3.1" transform="translate(6.3 13.9)" fill="#fff"/>
      <circle id="椭圆_243" data-name="椭圆 243" cx="3.1" cy="3.1" r="3.1" transform="translate(33.1 10.2)" fill="#fff"/>
      <circle id="椭圆_244" data-name="椭圆 244" cx="3.1" cy="3.1" r="3.1" transform="translate(17.8 19.4)" fill="#fff"/>
      <circle id="椭圆_245" data-name="椭圆 245" cx="2.5" cy="2.5" r="2.5" transform="translate(21.5 6.3)" fill="#fff"/>
      <circle id="椭圆_246" data-name="椭圆 246" cx="2.5" cy="2.5" r="2.5" transform="translate(39 20)" fill="#fff"/>
      <circle id="椭圆_247" data-name="椭圆 247" cx="1.8" cy="1.8" r="1.8" transform="translate(30.9 28.2)" fill="#fff"/>
      <circle id="椭圆_248" data-name="椭圆 248" cx="1.3" cy="1.3" r="1.3" transform="translate(15.2 35.1)" fill="#fff"/>
      <circle id="椭圆_249" data-name="椭圆 249" cx="2.5" cy="2.5" r="2.5" transform="translate(6 27.6)" fill="#fff"/>
      <path id="路径_1637" data-name="路径 1637" d="M11.9,13.8a29.151,29.151,0,0,1,8-4.8" fill="none" stroke="#fff" stroke-miterlimit="10" stroke-width="1"/>
      <path id="路径_1638" data-name="路径 1638" d="M27.9,9a17.063,17.063,0,0,1,5.3,2" fill="none" stroke="#fff" stroke-miterlimit="10" stroke-width="1"/>
      <path id="路径_1639" data-name="路径 1639" d="M39,15.6s1.6,2.2,1.6,3.3" fill="none" stroke="#fff" stroke-miterlimit="10" stroke-width="1"/>
      <path id="路径_1640" data-name="路径 1640" d="M41.5,26.1s-1.4,3.4-6.3,4.1" fill="none" stroke="#fff" stroke-miterlimit="10" stroke-width="1"/>
      <path id="路径_1641" data-name="路径 1641" d="M13.9,16.4S25.7,14.9,31.3,14" fill="none" stroke="#fff" stroke-miterlimit="10" stroke-width="1"/>
      <line id="直线_21" data-name="直线 21" x1="1.6" y2="5" transform="translate(21.9 12.9)" fill="none" stroke="#fff" stroke-miterlimit="10" stroke-width="1"/>
      <line id="直线_22" data-name="直线 22" x2="3.7" y2="1.8" transform="translate(13.4 18.6)" fill="none" stroke="#fff" stroke-miterlimit="10" stroke-width="1"/>
      <line id="直线_23" data-name="直线 23" x1="5.6" y2="3.9" transform="translate(11.9 24.2)" fill="none" stroke="#fff" stroke-miterlimit="10" stroke-width="1"/>
      <line id="直线_24" data-name="直线 24" x2="17.3" transform="translate(12.4 30.1)" fill="none" stroke="#fff" stroke-miterlimit="10" stroke-width="1"/>
      <path id="路径_1642" data-name="路径 1642" d="M19.9,26.1A17.691,17.691,0,0,0,17.5,34" fill="none" stroke="#fff" stroke-miterlimit="10" stroke-width="1"/>
      <line id="直线_25" data-name="直线 25" x2="12.3" transform="translate(25.6 22.5)" fill="none" stroke="#fff" stroke-miterlimit="10" stroke-width="1"/>
      <path id="路径_1643" data-name="路径 1643" d="M34.9,17.9s0,7.3-2.7,8.8" fill="none" stroke="#fff" stroke-miterlimit="10" stroke-width="1"/>
      <line id="直线_26" data-name="直线 26" x2="5.6" y2="4.5" transform="translate(24.5 24.2)" fill="none" stroke="#fff" stroke-miterlimit="10" stroke-width="1"/>
      <path id="路径_1644" data-name="路径 1644" d="M9.9,33.3s2.8,3.1,4,3.1" fill="none" stroke="#fff" stroke-miterlimit="10" stroke-width="1"/>
      <path id="路径_1645" data-name="路径 1645" d="M30.9,32.4S20.2,35.8,21.5,45" fill="none" stroke="#fff" stroke-miterlimit="10" stroke-width="1"/>
      <path id="路径_1646" data-name="路径 1646" d="M19.9,35.6s.3,6.1-1.7,9.1" fill="none" stroke="#fff" stroke-miterlimit="10" stroke-width="1"/>
      <path id="路径_1647" data-name="路径 1647" d="M7.5,20.4s-1,4.4,0,5.8" fill="none" stroke="#fff" stroke-miterlimit="10" stroke-width="1"/>
    </g>
  </g>
</svg>
