<svg xmlns="http://www.w3.org/2000/svg" width="12" height="12" viewBox="0 0 12 12">
  <path id="xinxi-2" d="M58.231,54.272a5.782,5.782,0,0,1,2.334.475,6.024,6.024,0,0,1,3.184,3.191,5.991,5.991,0,0,1,0,4.676A6.042,6.042,0,0,1,60.565,65.8a5.991,5.991,0,0,1-4.676,0A6.024,6.024,0,0,1,52.7,62.613a5.991,5.991,0,0,1,0-4.676,6.006,6.006,0,0,1,3.191-3.191A5.829,5.829,0,0,1,58.231,54.272Zm.722,5.177a.762.762,0,0,0-.207-.542.678.678,0,0,0-.515-.221.7.7,0,0,0-.522.221.749.749,0,0,0-.214.542v4.482a.661.661,0,0,0,.214.515.749.749,0,0,0,.522.194.735.735,0,0,0,.522-.2.682.682,0,0,0,.214-.522Zm-.722-1.659a.936.936,0,1,0,0-1.873.925.925,0,0,0-.669.274.921.921,0,0,0,0,1.324A.925.925,0,0,0,58.231,57.79Z" transform="translate(-52.224 -54.272)" fill="#919191"/>
</svg>
