<?xml version="1.0" encoding="utf-8"?>
<!-- Generator: Adobe Illustrator 22.1.0, SVG Export Plug-In . SVG Version: 6.00 Build 0)  -->
<svg version="1.1" id="图层_1" xmlns="http://www.w3.org/2000/svg" xmlns:xlink="http://www.w3.org/1999/xlink" x="0px" y="0px"
	 viewBox="0 0 32 32" style="enable-background:new 0 0 32 32;" xml:space="preserve">
<style type="text/css">
	.st0{fill:#8E8E8F;}
</style>
<path class="st0" d="M29,16c0-7.2-5.8-13-13-13S3,8.8,3,16s5.8,13,13,13S29,23.2,29,16 M16,27.1c-6.1,0-11.1-5-11.1-11.1
	S9.9,4.9,16,4.9s11.1,5,11.1,11.1S22.1,27.1,16,27.1"/>
<path class="st0" d="M21.4,17.1H10.6c-0.6,0-1.1-0.5-1.1-1.1s0.5-1.1,1.1-1.1h10.9c0.6,0,1.1,0.5,1.1,1.1
	C22.5,16.6,22,17.1,21.4,17.1z"/>
</svg>
