<svg xmlns="http://www.w3.org/2000/svg" width="45.98" height="46" viewBox="0 0 45.98 46">
  <g id="组_2598" data-name="组 2598" transform="translate(-179 -2295)">
    <g id="组_2495" data-name="组 2495" transform="translate(-197 1279)">
      <g id="组_2474" data-name="组 2474" transform="translate(160 -1503)">
        <g id="椭圆_2" data-name="椭圆 2" transform="translate(216 2519)" fill="none" stroke="#717176" stroke-width="2">
          <ellipse cx="22.99" cy="23" rx="22.99" ry="23" stroke="none"/>
          <ellipse cx="22.99" cy="23" rx="21.99" ry="22" fill="none"/>
        </g>
      </g>
      <g id="组_2480" data-name="组 2480" transform="translate(68 -10)">
        <g id="btn_tool_freePen_normal1" transform="translate(319.48 1035.676)">
          <g id="组_1945">
            <path id="路径_1337" d="M1165.242,1237.139c-3.068,0-9.2-4.771-1.931-11.818s2.613-11.135-2.272-13.521" transform="translate(-1159.894 -1211.8)" fill="none" stroke="#717176" stroke-width="1.5"/>
            <path id="路径_1336" d="M1185.446,1219.559l-3.637-3.636a3.428,3.428,0,0,0-4.885,0l-12.841,12.726a2.245,2.245,0,0,0-.68,1.591v5.908a1.572,1.572,0,0,0,1.363,1.819h6.363a2.245,2.245,0,0,0,1.592-.682l12.727-12.726a3.567,3.567,0,0,0,0-5Zm-14.545,16.477h-5.682v-5.682a.417.417,0,0,1,.114-.341c0,.114.114.228.227.341l5.341,5.341c.113.113.226.113.34.226A.413.413,0,0,1,1170.9,1236.036Zm1.363-.91a.871.871,0,0,0-.227-.568l-5.34-5.34a.872.872,0,0,0-.569-.227l8.636-8.636,6.135,6.136Zm12.045-11.931-2.045,2.046-6.136-6.136,2.045-2.045a1.647,1.647,0,0,1,2.386,0l3.636,3.635a1.788,1.788,0,0,1,.114,2.5Z" transform="translate(-1159.418 -1211.378)" fill="#717176"/>
          </g>
        </g>
      </g>
    </g>
  </g>
</svg>
