<svg xmlns="http://www.w3.org/2000/svg" width="25" height="21" viewBox="0 0 25 21">
  <g id="组_6167" data-name="组 6167" transform="translate(-18198 -19575)">
    <g id="矩形_1839" data-name="矩形 1839" transform="translate(18199 19575)" fill="#fff" stroke="#fff" stroke-width="1">
      <rect width="1" height="6" stroke="none"/>
      <rect x="0.5" y="0.5" height="5" fill="none"/>
    </g>
    <g id="矩形_1840" data-name="矩形 1840" transform="translate(18221 19575)" fill="#fff" stroke="#fff" stroke-width="1">
      <rect width="1" height="6" stroke="none"/>
      <rect x="0.5" y="0.5" height="5" fill="none"/>
    </g>
    <g id="矩形_1841" data-name="矩形 1841" transform="translate(18200 19577)" fill="#fff" stroke="#fff" stroke-width="1">
      <rect width="5" height="2" stroke="none"/>
      <rect x="0.5" y="0.5" width="4" height="1" fill="none"/>
    </g>
    <g id="矩形_1842" data-name="矩形 1842" transform="translate(18207 19577)" fill="#fff" stroke="#fff" stroke-width="1">
      <rect width="6" height="2" stroke="none"/>
      <rect x="0.5" y="0.5" width="5" height="1" fill="none"/>
    </g>
    <g id="矩形_1843" data-name="矩形 1843" transform="translate(18215 19577)" fill="#fff" stroke="#fff" stroke-width="1">
      <rect width="6" height="2" stroke="none"/>
      <rect x="0.5" y="0.5" width="5" height="1" fill="none"/>
    </g>
    <g id="矩形_1844" data-name="矩形 1844" transform="translate(18198 19584)" fill="none" stroke="#fff" stroke-width="1">
      <rect width="25" height="12" stroke="none"/>
      <rect x="0.5" y="0.5" width="24" height="11" fill="none"/>
    </g>
    <g id="矩形_1845" data-name="矩形 1845" transform="translate(18202 19589)" fill="#fff" stroke="#fff" stroke-width="1">
      <rect width="1" height="6" stroke="none"/>
      <rect x="0.5" y="0.5" height="5" fill="none"/>
    </g>
    <g id="矩形_1846" data-name="矩形 1846" transform="translate(18206 19592)" fill="#fff" stroke="#fff" stroke-width="1">
      <rect width="1" height="3" stroke="none"/>
      <rect x="0.5" y="0.5" height="2" fill="none"/>
    </g>
    <g id="矩形_1847" data-name="矩形 1847" transform="translate(18210 19589)" fill="#fff" stroke="#fff" stroke-width="1">
      <rect width="1" height="6" stroke="none"/>
      <rect x="0.5" y="0.5" height="5" fill="none"/>
    </g>
    <g id="矩形_1848" data-name="矩形 1848" transform="translate(18214 19592)" fill="#fff" stroke="#fff" stroke-width="1">
      <rect width="1" height="3" stroke="none"/>
      <rect x="0.5" y="0.5" height="2" fill="none"/>
    </g>
    <g id="矩形_1849" data-name="矩形 1849" transform="translate(18218 19589)" fill="#fff" stroke="#fff" stroke-width="1">
      <rect width="1" height="6" stroke="none"/>
      <rect x="0.5" y="0.5" height="5" fill="none"/>
    </g>
  </g>
</svg>
