<?xml version="1.0" standalone="no"?><!DOCTYPE svg PUBLIC "-//W3C//DTD SVG 1.1//EN" "http://www.w3.org/Graphics/SVG/1.1/DTD/svg11.dtd"><svg t="1543817882149" class="icon" style="" viewBox="0 0 1024 1024" version="1.1" xmlns="http://www.w3.org/2000/svg" p-id="3220" xmlns:xlink="http://www.w3.org/1999/xlink" width="64" height="64"><defs><style type="text/css"></style></defs><path d="M512 0C230.4 0 0 230.4 0 512c0 281.6 230.4 512 512 512 281.6 0 512-230.4 512-512C1024 230.4 793.6 0 512 0zM512 960c-249.6 0-448-204.8-448-448s204.8-448 448-448c249.6 0 448 198.4 448 448S761.6 960 512 960zM736 486.4l-192 0L544 217.6c0-32-25.6-51.2-51.2-51.2-32 0-51.2 25.6-51.2 51.2l0 326.4c0 32 19.2 51.2 51.2 51.2l249.6 0c32 0 51.2-19.2 51.2-51.2C793.6 512 768 486.4 736 486.4z" p-id="3221" fill="#ffffff"></path></svg>