<svg xmlns="http://www.w3.org/2000/svg" width="46" height="46" viewBox="0 0 46 46">
  <g id="组_2612" data-name="组 2612" transform="translate(-122 -1018)">
    <g id="椭圆_2" data-name="椭圆 2" transform="translate(122 1018)" fill="#0b94fc">
      <path d="M 22.9999942779541 45.5 C 19.96229362487793 45.5 17.01572418212891 44.90517044067383 14.24213409423828 43.73204040527344 C 11.56291389465332 42.59883117675781 9.156623840332031 40.97642135620117 7.090104103088379 38.9099006652832 C 5.023574352264404 36.84337997436523 3.401174306869507 34.43709182739258 2.267964363098145 31.75786018371582 C 1.094834327697754 28.9842700958252 0.5000042915344238 26.03770065307617 0.5000042915344238 23 C 0.5000042915344238 19.96229934692383 1.094834327697754 17.0157299041748 2.267964363098145 14.24213981628418 C 3.401174306869507 11.56291007995605 5.023574352264404 9.156620025634766 7.090104103088379 7.090099811553955 C 9.156623840332031 5.023580074310303 11.56291389465332 3.401170015335083 14.24213409423828 2.267960071563721 C 17.01572418212891 1.09483003616333 19.96229362487793 0.5 22.9999942779541 0.5 C 26.03769493103027 0.5 28.9842643737793 1.09483003616333 31.75785446166992 2.267960071563721 C 34.43707275390625 3.401170015335083 36.84337615966797 5.023580074310303 38.90989303588867 7.090099811553955 C 40.97641372680664 9.156620025634766 42.59882354736328 11.56291007995605 43.73203277587891 14.24213981628418 C 44.9051628112793 17.0157299041748 45.49999237060547 19.96229934692383 45.49999237060547 23 C 45.49999237060547 26.03770065307617 44.9051628112793 28.9842700958252 43.73203277587891 31.75786018371582 C 42.59882354736328 34.43709182739258 40.97641372680664 36.84337997436523 38.90989303588867 38.9099006652832 C 36.84337615966797 40.97642135620117 34.43707275390625 42.59883117675781 31.75785446166992 43.73204040527344 C 28.9842643737793 44.90517044067383 26.03769493103027 45.5 22.9999942779541 45.5 Z" stroke="none"/>
      <path d="M 22.9999942779541 1 C 20.02957344055176 1 17.14853477478027 1.581539154052734 14.43691444396973 2.728458404541016 C 11.81728363037109 3.836471557617188 9.464412689208984 5.422889709472656 7.443645477294922 7.443649291992188 C 5.422885894775391 9.464420318603516 3.836463928222656 11.81729125976562 2.72845458984375 14.43691062927246 C 1.581535339355469 17.14854049682617 0.9999961853027344 20.02957916259766 0.9999961853027344 23 C 0.9999961853027344 25.97042083740234 1.581535339355469 28.85145950317383 2.72845458984375 31.56309127807617 C 3.836463928222656 34.18270874023438 5.422885894775391 36.53557968139648 7.443645477294922 38.55635070800781 C 9.464412689208984 40.57711029052734 11.81728363037109 42.16352844238281 14.43691444396973 43.27154159545898 C 17.14853477478027 44.41846084594727 20.02957344055176 45 22.9999942779541 45 C 25.97041511535645 45 28.85145378112793 44.41846084594727 31.56307411193848 43.27154159545898 C 34.18269348144531 42.16352844238281 36.53557586669922 40.57711029052734 38.55633544921875 38.55635070800781 C 40.57709503173828 36.53559112548828 42.16351318359375 34.18270874023438 43.27152252197266 31.56309127807617 C 44.4184455871582 28.85145950317383 44.99998474121094 25.97042083740234 44.99998474121094 23 C 44.99998474121094 20.02957916259766 44.4184455871582 17.14854049682617 43.27152252197266 14.43691062927246 C 42.16351318359375 11.81729125976562 40.57709503173828 9.464408874511719 38.55633544921875 7.443649291992188 C 36.53557586669922 5.422889709472656 34.18269348144531 3.836471557617188 31.56307411193848 2.728458404541016 C 28.85145378112793 1.581539154052734 25.97041511535645 1 22.9999942779541 1 M 22.9999942779541 0 C 35.70253372192383 0 45.99998474121094 10.29745101928711 45.99998474121094 23 C 45.99998474121094 35.70254898071289 35.70253372192383 46 22.9999942779541 46 C 10.29745483398438 46 -3.814697265625e-06 35.70254898071289 -3.814697265625e-06 23 C -3.814697265625e-06 10.29745101928711 10.29745483398438 0 22.9999942779541 0 Z" stroke="none" fill="#0b94fc"/>
    </g>
    <path id="形状_604_拷贝_2" data-name="形状 604 拷贝 2" d="M195.071,1856.1s5.586,7.194,3.633,15.165-9.733,8.127-14.8,8.454" transform="translate(-61.308 -834.756)" fill="none" stroke="#fff" stroke-width="1.5"/>
    <path id="形状_605_拷贝_2" data-name="形状 605 拷贝 2" d="M197.8,1878.043c2.861,1.263,6.522,8.658,9.086,12.461s-.81,7.83-2.421,10.551" transform="translate(-62.703 -837.622)" fill="none" stroke="#fff" stroke-width="1.5"/>
    <path id="形状_606_拷贝_2" data-name="形状 606 拷贝 2" d="M200.843,1870.451s11.86.919,16.423-1.425,1.527-9.132,2.036-12.176" transform="translate(-63.087 -835.388)" fill="none" stroke="#fff" stroke-linejoin="round" stroke-width="1.5"/>
    <path id="形状_607_拷贝_2" data-name="形状 607 拷贝 2" d="M218.625,1870.47s1.794,4.47-2.142,12.83-7.758,8.724-7.758,8.724" transform="translate(-63.731 -836.832)" fill="none" stroke="#fff" stroke-width="1.5"/>
    <path id="形状_608_拷贝_2" data-name="形状 608 拷贝 2" d="M218.641,1881.85s8.159,8.4,9.336,10.967" transform="translate(-65.054 -838.074)" fill="none" stroke="#fff" stroke-width="1.5"/>
    <path id="路径_1631" data-name="路径 1631" d="M-7419.2-7579.089a10.153,10.153,0,0,0-.782,3.9c.113.873-1,.715-1,.715s-.315-2.539-1.34-2.387,1.34-1.213,1.34-1.213S-7418.819-7579.75-7419.2-7579.089Z" transform="translate(7576 8611)" fill="#fff"/>
    <path id="路径_1632" data-name="路径 1632" d="M-7420.813-7568.908a2.863,2.863,0,0,0,.708,3.081c.382.335.528,2.34-.424,1.66a1.467,1.467,0,0,0-2.306.438C-7423.7-7562.2-7420.434-7570.061-7420.813-7568.908Z" transform="translate(7576 8611)" fill="#fff"/>
    <path id="路径_1633" data-name="路径 1633" d="M-7437.736-7581.095s-.229,4.516,2.388,4.624.823,1.415.823,1.415-2.425-.565-4.253,2.855.333-3.027.333-3.027Z" transform="translate(7576 8611)" fill="#fff"/>
    <path id="路径_1634" data-name="路径 1634" d="M-7438.947-7571.907l.324-.854" transform="translate(7576 8611)" fill="#0b94fc"/>
    <path id="路径_1635" data-name="路径 1635" d="M-7442.028-7568.121s1.193-1.887,3.116.18,1.137-.781,1.137-.781-1.461-2.184-.624-4.048-.642-.465-.642-.465l-2.377,3.433Z" transform="translate(7576 8611)" fill="#fff"/>
    <path id="路径_1636" data-name="路径 1636" d="M-7432.311-7559.994s1.91,3.354,3.947,1.847-.448,2.094-.448,2.094a4.164,4.164,0,0,0-1.587,2.413c-.6,1.875-.695-2.132-.695-2.132l-1.217-3.244Z" transform="translate(7576 8611)" fill="#fff"/>
    <g id="椭圆_2-2" data-name="椭圆 2" transform="translate(122 1018)" fill="none">
      <path d="M23,0A23,23,0,1,1,0,23,23,23,0,0,1,23,0Z" stroke="none"/>
      <path d="M 22.9999942779541 1 C 20.02957344055176 1 17.14853477478027 1.581539154052734 14.43691444396973 2.728458404541016 C 11.81728363037109 3.836471557617188 9.464412689208984 5.422889709472656 7.443645477294922 7.443649291992188 C 5.422885894775391 9.464420318603516 3.836463928222656 11.81729125976562 2.72845458984375 14.43691062927246 C 1.581535339355469 17.14854049682617 0.9999961853027344 20.02957916259766 0.9999961853027344 23 C 0.9999961853027344 25.97042083740234 1.581535339355469 28.85145950317383 2.72845458984375 31.56309127807617 C 3.836463928222656 34.18270874023438 5.422885894775391 36.53557968139648 7.443645477294922 38.55635070800781 C 9.464412689208984 40.57711029052734 11.81728363037109 42.16352844238281 14.43691444396973 43.27154159545898 C 17.14853477478027 44.41846084594727 20.02957344055176 45 22.9999942779541 45 C 25.97041511535645 45 28.85145378112793 44.41846084594727 31.56307411193848 43.27154159545898 C 34.18269348144531 42.16352844238281 36.53557586669922 40.57711029052734 38.55633544921875 38.55635070800781 C 40.57709503173828 36.53559112548828 42.16351318359375 34.18270874023438 43.27152252197266 31.56309127807617 C 44.4184455871582 28.85145950317383 44.99998474121094 25.97042083740234 44.99998474121094 23 C 44.99998474121094 20.02957916259766 44.4184455871582 17.14854049682617 43.27152252197266 14.43691062927246 C 42.16351318359375 11.81729125976562 40.57709503173828 9.464408874511719 38.55633544921875 7.443649291992188 C 36.53557586669922 5.422889709472656 34.18269348144531 3.836471557617188 31.56307411193848 2.728458404541016 C 28.85145378112793 1.581539154052734 25.97041511535645 1 22.9999942779541 1 M 22.9999942779541 0 C 35.70253372192383 0 45.99998474121094 10.29745101928711 45.99998474121094 23 C 45.99998474121094 35.70254898071289 35.70253372192383 46 22.9999942779541 46 C 10.29745483398438 46 -3.814697265625e-06 35.70254898071289 -3.814697265625e-06 23 C -3.814697265625e-06 10.29745101928711 10.29745483398438 0 22.9999942779541 0 Z" stroke="none" fill="#0b94fc"/>
    </g>
  </g>
</svg>
