<svg xmlns="http://www.w3.org/2000/svg" width="46" height="46" viewBox="0 0 46 46">
  <g id="组_2596" data-name="组 2596" transform="translate(-179 -2180)">
    <path id="形状_604_拷贝_2" data-name="形状 604 拷贝 2" d="M195.071,1856.1s5.586,7.194,3.633,15.165-9.733,8.127-14.8,8.454" transform="translate(-4.308 327.244)" fill="none" stroke="#0b94fc" stroke-width="1.5"/>
    <path id="形状_605_拷贝_2" data-name="形状 605 拷贝 2" d="M197.8,1878.043c2.861,1.263,6.522,8.658,9.086,12.461s-.81,7.83-2.421,10.551" transform="translate(-5.703 324.378)" fill="none" stroke="#0b94fc" stroke-width="1.5"/>
    <path id="形状_606_拷贝_2" data-name="形状 606 拷贝 2" d="M200.843,1870.451s11.86.919,16.423-1.425,1.527-9.132,2.036-12.176" transform="translate(-6.087 326.612)" fill="none" stroke="#0b94fc" stroke-linejoin="round" stroke-width="1.5"/>
    <path id="形状_607_拷贝_2" data-name="形状 607 拷贝 2" d="M218.625,1870.47s1.794,4.47-2.142,12.83-7.758,8.724-7.758,8.724" transform="translate(-6.731 325.168)" fill="none" stroke="#0b94fc" stroke-width="1.5"/>
    <path id="形状_608_拷贝_2" data-name="形状 608 拷贝 2" d="M218.641,1881.85s8.159,8.4,9.336,10.967" transform="translate(-8.054 323.926)" fill="none" stroke="#0b94fc" stroke-width="1.5"/>
    <g id="椭圆_2" data-name="椭圆 2" transform="translate(179 2180)" fill="none">
      <path d="M23,0A23,23,0,1,1,0,23,23,23,0,0,1,23,0Z" stroke="none"/>
      <path d="M 22.9999942779541 2 C 20.16413497924805 2 17.41416358947754 2.554958343505859 14.82646369934082 3.649459838867188 C 12.32603454589844 4.707050323486328 10.08000564575195 6.221511840820312 8.150753021240234 8.150760650634766 C 6.221504211425781 10.08000946044922 4.707054138183594 12.3260383605957 3.649456024169922 14.82646942138672 C 2.554954528808594 17.41415977478027 1.999996185302734 20.16414070129395 1.999996185302734 23 C 1.999996185302734 25.83585929870605 2.554954528808594 28.58584022521973 3.649456024169922 31.17353057861328 C 4.707054138183594 33.67395782470703 6.221504211425781 35.91999053955078 8.150753021240234 37.84923934936523 C 10.08000564575195 39.77848815917969 12.32603454589844 41.29294967651367 14.82646369934082 42.35054016113281 C 17.41416358947754 43.44504165649414 20.16413497924805 44 22.9999942779541 44 C 25.83585357666016 44 28.58582496643066 43.44504165649414 31.17352294921875 42.35054016113281 C 33.67394256591797 41.29294967651367 35.91998291015625 39.77848815917969 37.84922409057617 37.84923934936523 C 39.77847290039062 35.91999053955078 41.29293441772461 33.67395782470703 42.35052490234375 31.17353057861328 C 43.44502258300781 28.58584022521973 43.99998474121094 25.83585929870605 43.99998474121094 23 C 43.99998474121094 20.16414070129395 43.44502258300781 17.41415977478027 42.35052490234375 14.82646942138672 C 41.29293441772461 12.3260383605957 39.77847290039062 10.08000946044922 37.84922409057617 8.150760650634766 C 35.91998291015625 6.221511840820312 33.67394256591797 4.707050323486328 31.17352294921875 3.649459838867188 C 28.58582496643066 2.554958343505859 25.83585357666016 2 22.9999942779541 2 M 22.9999942779541 0 C 35.70253372192383 0 45.99998474121094 10.29745101928711 45.99998474121094 23 C 45.99998474121094 35.70254898071289 35.70253372192383 46 22.9999942779541 46 C 10.29745483398438 46 -3.814697265625e-06 35.70254898071289 -3.814697265625e-06 23 C -3.814697265625e-06 10.29745101928711 10.29745483398438 0 22.9999942779541 0 Z" stroke="none" fill="#0b94fc"/>
    </g>
    <path id="路径_1631" data-name="路径 1631" d="M-7419.2-7579.089a10.153,10.153,0,0,0-.782,3.9c.113.873-1,.715-1,.715s-.315-2.539-1.34-2.387,1.34-1.213,1.34-1.213S-7418.819-7579.75-7419.2-7579.089Z" transform="translate(7633 9773)" fill="#0b94fc"/>
    <path id="路径_1632" data-name="路径 1632" d="M-7420.813-7568.908a2.863,2.863,0,0,0,.708,3.081c.382.335.528,2.34-.424,1.66a1.467,1.467,0,0,0-2.306.438C-7423.7-7562.2-7420.434-7570.061-7420.813-7568.908Z" transform="translate(7633 9773)" fill="#0b94fc"/>
    <path id="路径_1633" data-name="路径 1633" d="M-7437.736-7581.095s-.229,4.516,2.388,4.624.823,1.415.823,1.415-2.425-.565-4.253,2.855.333-3.027.333-3.027Z" transform="translate(7633 9773)" fill="#0b94fc"/>
    <path id="路径_1634" data-name="路径 1634" d="M-7438.947-7571.907l.324-.854" transform="translate(7633 9773)" fill="#0b94fc"/>
    <path id="路径_1635" data-name="路径 1635" d="M-7442.028-7568.121s1.193-1.887,3.116.18,1.137-.781,1.137-.781-1.461-2.184-.624-4.048-.642-.465-.642-.465l-2.377,3.433Z" transform="translate(7633 9773)" fill="#0b94fc"/>
    <path id="路径_1636" data-name="路径 1636" d="M-7432.311-7559.994s1.91,3.354,3.947,1.847-.448,2.094-.448,2.094a4.164,4.164,0,0,0-1.587,2.413c-.6,1.875-.695-2.132-.695-2.132l-1.217-3.244Z" transform="translate(7633 9773)" fill="#0b94fc"/>
  </g>
</svg>
