<svg xmlns="http://www.w3.org/2000/svg" width="11.69" height="12.886" viewBox="0 0 11.69 12.886">
  <path id="bianji-2" d="M167.947,92.7l6.121-7.259a1.109,1.109,0,0,0-.133-1.559l-2.254-1.9a1.109,1.109,0,0,0-1.559.133L164,89.373l-.354,3.871a.437.437,0,0,0,.548.463l3.754-1Zm1.732-8.693,2.6,2.188-4.433,5.258-2.6-2.19,4.433-5.256Zm1.43-1.352,2.256,1.9a.223.223,0,0,1,.026.312l-.55.653-2.594-2.188.55-.653A.224.224,0,0,1,171.109,82.658ZM164.574,92.7l.242-2.633,2.313,1.95-2.555.683Z" transform="matrix(0.996, -0.087, 0.087, 0.996, -170.142, -66.217)" fill="#2a9ff6"/>
</svg>
