<svg xmlns="http://www.w3.org/2000/svg" width="28" height="28" viewBox="0 0 28 28">
  <path id="bianjijiedian" d="M121.322,120.769a18.115,18.115,0,0,0-1.437-3.513c-1.928-3.543-4.788-5.643-8.808-5.643v1.618h-4.308v-1.616c-4.986,0-7.86-2.813-9.02-7.406a19.886,19.886,0,0,1-.564-4.978H96V96h3.231v3.231h-.968a18.89,18.89,0,0,0,.53,4.714c1.05,4.156,3.54,6.593,7.977,6.593v-1.614h4.308v1.614c4.461,0,7.653,2.343,9.754,6.2a19.345,19.345,0,0,1,1.612,4.028H124V124h-3.231v-3.231ZM107.846,110v2.154H110V110ZM110,102.462h4.308v4.308H110Zm1.077,1.077v2.154h2.154v-2.154Zm-12.108-.606a.538.538,0,0,1,.523-.941c.11.06.337.174.674.323a19.234,19.234,0,0,0,2,.737,24.39,24.39,0,0,0,5.417,1.008.539.539,0,0,1-.08,1.075,25.42,25.42,0,0,1-5.656-1.055,20,20,0,0,1-2.111-.779q-.39-.167-.765-.366Zm16.636,3.323a.538.538,0,0,1,.691-.825c1.93,1.618,3.223,4.413,4.034,7.886a.538.538,0,1,1-1.048.244C118.52,110.3,117.312,107.687,115.605,106.256Z" transform="translate(-96 -96)" fill="#fff"/>
</svg>
