<svg xmlns="http://www.w3.org/2000/svg" width="58.029" height="54.3" viewBox="0 0 58.029 54.3">
  <g id="组_2626" data-name="组 2626" transform="translate(-1049.5 -494.999)">
    <g id="icon" transform="translate(1107.529 549.3) rotate(180)">
      <g id="icon-2" data-name="icon">
        <g id="组_1" data-name="组 1" transform="translate(0 0)">
          <path id="路径_1" data-name="路径 1" d="M32.134,32.653a17.992,17.992,0,0,1-2.654-.211,27.023,27.023,0,0,1-5.585-1.492l.5-1.208c.074.03,5.8,2.319,9.973,1.387a4.266,4.266,0,0,1-.546-.446,1.847,1.847,0,0,1-.163-2.77,4.878,4.878,0,0,1,2.576-1.264,3.4,3.4,0,0,1,2.677.41c.468.411,1.021,1.374-.525,3.208a5.865,5.865,0,0,1-.716.714,14.438,14.438,0,0,0,3.681.115c3-.267,6.844-1.447,8.638-3.956l1.068.757a9.956,9.956,0,0,1-4.169,3.153A17.588,17.588,0,0,1,41.464,32.4a13.965,13.965,0,0,1-5.385-.452,8.349,8.349,0,0,1-1.844.537,12.109,12.109,0,0,1-2.1.172Zm5.113-4.8a4,4,0,0,0-2.631.948c-.215.23-.367.476.118.948a3.916,3.916,0,0,0,1.278.78,4.689,4.689,0,0,0,1.366-1.1c.7-.825.775-1.291.661-1.391a1.293,1.293,0,0,0-.793-.184Zm-18.67-2.661q-.424,0-.848-.015a16.327,16.327,0,0,1-7.271-1.767A20.752,20.752,0,0,1,6.5,23.273a38.812,38.812,0,0,1-6.5-1.4l.4-1.242A38.176,38.176,0,0,0,6.67,21.979c.691.082,1.431.144,2.172.161a2.078,2.078,0,0,1-.134-2.905C10.088,17.6,13.939,16.9,15.463,18c.421.306,1.282,1.206.175,2.957a5,5,0,0,1-2.906,2.05,17.234,17.234,0,0,0,5.043.863A18.933,18.933,0,0,0,25.8,22.6l.57,1.175a19.571,19.571,0,0,1-7.791,1.416Zm-5.2-6.428a5.382,5.382,0,0,0-3.668,1.31c-.167.2-.516.611.261,1.357a5.657,5.657,0,0,0,.806.637,4.856,4.856,0,0,0,3.749-1.8c.574-.909.264-1.134.162-1.208a2.35,2.35,0,0,0-1.309-.293Zm33.338,3.25-.177,0,.036-1.3c3.254.089,6.041-2.967,6.068-3l.977.87c-.128.143-3.134,3.434-6.9,3.434ZM46.4,17.7q-.108,0-.215,0l.048-1.3.165,0c3.518,0,4.95-4.134,4.964-4.177l1.243.414A9.48,9.48,0,0,1,51.172,15.2,5.99,5.99,0,0,1,46.4,17.7Zm-9.524-2.945a14.239,14.239,0,0,1-3.081-.325c-3.173-.715-5.13-2.546-5.659-5.3l-.1-.506a.09.09,0,0,1,.064-.1L48.529,2.748a.091.091,0,0,1,.09.024l.235.241a13.6,13.6,0,0,0,6.959,3.55l2.137.3a.09.09,0,0,1,.021.174L38.395,14.67a.087.087,0,0,1-.022.006l-.07.009a12.552,12.552,0,0,1-1.432.072Zm-7.22-5.313a.09.09,0,0,0-.055.044.089.089,0,0,0-.007.07c.6,1.853,2.1,3.063,4.491,3.6a13.461,13.461,0,0,0,3.972.24.077.077,0,0,0,.024-.006L53.3,7.452a.09.09,0,0,0,0-.169,15.493,15.493,0,0,1-5.064-3.051.091.091,0,0,0-.086-.02ZM.844,16.734a.215.215,0,0,1-.221-.361l1.7-1.53c.015-.013,1.466-1.322,2.93-2.83,2.64-2.719,2.958-3.64,2.993-3.857L8.3,7.8,26.693,0l-.121,1.108c-.02.186-.559,4.6-5.716,8.185l-.069.047Zm8.6-8c-.236.659-.954,1.824-3.252,4.19q-.336.346-.678.687L20.173,8.176a12.438,12.438,0,0,0,4.791-6.024Zm0,0" transform="translate(0 21.647)" fill="#999"/>
          <path id="路径_2" data-name="路径 2" d="M.793,29.538,0,8.363,17.846,0,18.4,1.18l-17.062,8L2.1,29.49Zm0,0" transform="translate(7.618 0.019)" fill="#999"/>
          <path id="路径_3" data-name="路径 3" d="M28.156,25.814l-23.62-2.65L4.467,0,28.225,4.909ZM5.843,22,26.85,24.354,26.91,5.971,5.783,1.6ZM0,30.712l.1-1.3,7.822.6-.1,1.3Zm0,0" transform="translate(20.903)" fill="#999"/>
        </g>
      </g>
      <path id="Color_Overlay" data-name="Color Overlay" d="M29.368,54.04A26.852,26.852,0,0,1,23.8,52.549l.494-1.207c.073.03,5.78,2.316,9.935,1.386a4.282,4.282,0,0,1-.544-.446,1.849,1.849,0,0,1-.162-2.768,4.854,4.854,0,0,1,2.566-1.263,3.38,3.38,0,0,1,2.667.409c.466.411,1.017,1.373-.523,3.2a5.862,5.862,0,0,1-.714.713,14.341,14.341,0,0,0,3.667.115c2.989-.267,6.818-1.445,8.605-3.952l1.064.756a9.92,9.92,0,0,1-4.153,3.15,17.478,17.478,0,0,1-5.4,1.345,13.874,13.874,0,0,1-5.365-.451,8.293,8.293,0,0,1-1.837.537,12.025,12.025,0,0,1-2.093.172A17.865,17.865,0,0,1,29.368,54.04ZM34.484,50.4c-.214.23-.366.476.118.947a3.894,3.894,0,0,0,1.273.779,4.668,4.668,0,0,0,1.361-1.1c.693-.824.772-1.29.659-1.389a1.285,1.285,0,0,0-.79-.184A3.982,3.982,0,0,0,34.484,50.4Zm-16.823-3.62a16.226,16.226,0,0,1-7.244-1.765,20.633,20.633,0,0,1-3.946-.137A38.59,38.59,0,0,1,0,43.485l.4-1.241a37.957,37.957,0,0,0,6.244,1.343c.689.082,1.425.144,2.164.161a2.08,2.08,0,0,1-.134-2.9c1.375-1.634,5.21-2.336,6.728-1.231.42.305,1.277,1.2.175,2.954a4.98,4.98,0,0,1-2.9,2.049,17.13,17.13,0,0,0,5.024.862A18.814,18.814,0,0,0,25.7,44.208l.568,1.174A19.444,19.444,0,0,1,18.506,46.8Q18.083,46.8,17.661,46.782Zm-7.986-5.1c-.167.2-.514.611.26,1.356a5.64,5.64,0,0,0,.8.637,4.832,4.832,0,0,0,3.734-1.8c.572-.909.263-1.133.162-1.207a2.335,2.335,0,0,0-1.3-.293A5.352,5.352,0,0,0,9.676,41.683Zm36.689,1.936.036-1.3c3.242.089,6.018-2.964,6.045-3l.973.869c-.128.143-3.122,3.431-6.878,3.431ZM46,39.309l.047-1.3.165,0c3.5,0,4.931-4.13,4.945-4.173l1.238.414a9.48,9.48,0,0,1-1.423,2.559,5.961,5.961,0,0,1-4.758,2.5C46.147,39.312,46.076,39.311,46,39.309ZM.621,37.986l1.692-1.529c.015-.013,1.46-1.321,2.919-2.828,2.63-2.717,2.947-3.637,2.981-3.854l.057-.356.1-.044-.784-21L25.273.063V0L48.94,4.9l-.066,19.93a13.416,13.416,0,0,0,6.726,3.35l2.129.3a.09.09,0,0,1,.021.174l-19.5,7.63-.022.006-.07.009a12.474,12.474,0,0,1-1.426.072,14.14,14.14,0,0,1-3.069-.325c-2.97-.671-4.87-2.326-5.526-4.8L21.071,30.7q-.144.105-.294.21l-.068.047L.841,38.346a.229.229,0,0,1-.079.015A.216.216,0,0,1,.621,37.986Zm8.785-7.632c-.235.659-.95,1.822-3.239,4.187q-.335.346-.676.686L20.1,29.8a12.422,12.422,0,0,0,4.773-6.018Zm38.563-4.518-18.43,5.227a.091.091,0,0,0-.062.114c.594,1.852,2.1,3.06,4.474,3.6a13.366,13.366,0,0,0,3.957.24.077.077,0,0,0,.024-.006L53.1,29.073a.09.09,0,0,0,0-.169,15.423,15.423,0,0,1-5.045-3.048.091.091,0,0,0-.061-.023A.094.094,0,0,0,47.968,25.835ZM22.531,29.506l6.073.465,16.312-4.626-18.54-2.086A12.449,12.449,0,0,1,22.531,29.506ZM8.926,9.187l.733,19.641L25.338,22.16,25.277,1.5Zm17.718,12.79L47.57,24.332l.06-18.367L26.584,1.6Z" fill="#999"/>
    </g>
  </g>
</svg>
