<svg xmlns="http://www.w3.org/2000/svg" viewBox="0 0 19.8 19.8"><defs><style>.cls-1{fill:#fdffff;}</style></defs><title>自由排除</title><g id="图层_2" data-name="图层 2"><g id="图层_1-2" data-name="图层 1"><path class="cls-1" d="M9.9,0a9.9,9.9,0,1,0,9.9,9.9A9.86,9.86,0,0,0,9.9,0Zm8.3,6.4c.1.3.3.7.4,1.1l-8.2,8.2V14.1l7.8-7.7Zm.7,3-8.5,8.5V16.3L18.7,8A5.9,5.9,0,0,1,18.9,9.4Zm-8.5,4V11.7l7-7c.2.3.4.7.6,1Zm0-6.2,4.7-4.7c.3.2.6.5.9.7L10.4,8.8Zm0-.6V5.1l3.4-3.4c.3.2.6.3.9.5Zm0-2.1V2.9l1.7-1.7a5.64,5.64,0,0,1,1.2.4Zm0-2.3V.9c.4,0,.8.1,1.2.1Zm0,16.3L19,10a12.25,12.25,0,0,1-.2,1.9L12,18.7a7.72,7.72,0,0,1-1.5.2l-.1-.4ZM17.1,4.4l-6.7,6.7V9.5l6-6A5.5,5.5,0,0,0,17.1,4.4ZM3.5,16.3A9,9,0,0,1,.9,9.9,9,9,0,0,1,3.5,3.5,8.88,8.88,0,0,1,9.4.9v18a8.24,8.24,0,0,1-3.1-.7A9.92,9.92,0,0,1,3.5,16.3Zm12.8,0a9.88,9.88,0,0,1-3.5,2.2l5.7-5.7A9.88,9.88,0,0,1,16.3,16.3Z"/></g></g></svg>