<?xml version="1.0" encoding="utf-8"?>
<!-- Generator: Adobe Illustrator 23.0.0, SVG Export Plug-In . SVG Version: 6.00 Build 0)  -->
<svg version="1.1" id="图层_1" xmlns="http://www.w3.org/2000/svg" xmlns:xlink="http://www.w3.org/1999/xlink" x="0px" y="0px"
	 viewBox="0 0 48 32" style="enable-background:new 0 0 48 32;" xml:space="preserve">
<style type="text/css">
	.st0{fill:none;stroke:#FFFFFF;stroke-width:2;}
	.st1{fill:#FFFFFF;}
</style>
<g id="btn_tool_freePen_normal" transform="translate(-1147 -1203)">
	<g id="组_1945" transform="translate(-0.866 -4.811)">
		<path id="路径_1337" class="st0" d="M1164.6,1234.1c-2.7,0-8.1-4.2-1.7-10.4s2.3-9.8-2-11.9"/>
		<path id="路径_1336" class="st1" d="M1182.8,1219l-3.2-3.2c-1.2-1.2-3.1-1.2-4.3,0L1164,1227c-0.4,0.4-0.6,0.9-0.6,1.4v5.2
			c-0.1,0.8,0.4,1.5,1.2,1.6c0.1,0,0.2,0,0.4,0l5.2,0c0.5,0,1-0.2,1.4-0.6l11.2-11.2C1184,1222.1,1184,1220.2,1182.8,1219
			C1182.9,1219,1182.8,1219,1182.8,1219z M1170,1233.5l-5,0v-5c0-0.1,0-0.2,0.1-0.3c0,0.1,0.1,0.2,0.2,0.3l4.7,4.7
			c0.1,0.1,0.2,0.1,0.3,0.2C1170.2,1233.5,1170.1,1233.5,1170,1233.5z M1171.2,1232.7c0-0.2-0.1-0.4-0.2-0.5l-4.7-4.7
			c-0.1-0.1-0.3-0.2-0.5-0.2l7.6-7.6l5.4,5.4L1171.2,1232.7z M1181.8,1222.2l-1.8,1.8l-5.4-5.4l1.8-1.8c0.6-0.6,1.6-0.6,2.1,0
			l3.2,3.2C1182.3,1220.6,1182.4,1221.6,1181.8,1222.2C1181.8,1222.2,1181.8,1222.2,1181.8,1222.2z"/>
	</g>
</g>
</svg>
