<svg xmlns="http://www.w3.org/2000/svg" xmlns:xlink="http://www.w3.org/1999/xlink" width="46" height="46" viewBox="0 0 46 46">
  <defs>
    <clipPath id="clip-path">
      <rect width="46" height="46" fill="none"/>
    </clipPath>
  </defs>
  <g id="重复网格_3" data-name="重复网格 3" clip-path="url(#clip-path)">
    <g id="组_12380" data-name="组 12380" transform="translate(-139 -731)">
      <g id="组_12279" data-name="组 12279" transform="translate(-11028 5669)">
        <g id="椭圆_2" data-name="椭圆 2" transform="translate(11167 -4938)" fill="#0b94fc" stroke="#0b94fc" stroke-width="1">
          <circle cx="23" cy="23" r="23" stroke="none"/>
          <circle cx="23" cy="23" r="22.5" fill="none"/>
        </g>
      </g>
      <g id="xianxie" transform="translate(22 613.943)">
        <path id="路径_2211" data-name="路径 2211" d="M145.136,143.958a.959.959,0,0,0-1.233.576,7.2,7.2,0,0,1-13.973-2.451c0-2.111,1.333-4.894,3.854-8.051a41.346,41.346,0,0,1,3.347-3.682c.6.6,1.6,1.6,2.638,2.825a.965.965,0,0,0,1.468-1.251,41.366,41.366,0,0,0-3.462-3.618.962.962,0,0,0-1.291,0c-.347.3-8.485,7.707-8.485,13.78a9.13,9.13,0,0,0,17.715,3.106.962.962,0,0,0-.579-1.233Z" fill="#fff"/>
        <path id="路径_2212" data-name="路径 2212" d="M343.43,182.5a.965.965,0,0,0-1.294,0c-.479.431-4.692,4.321-4.692,7.716a5.34,5.34,0,0,0,10.677,0C348.134,186.816,343.921,182.927,343.43,182.5Zm-.633,11.124a3.413,3.413,0,0,1-3.41-3.407c0-1.809,2.081-4.312,3.41-5.663,1.327,1.348,3.407,3.842,3.407,5.663A3.41,3.41,0,0,1,342.8,193.619Zm-8.69,4.025a.965.965,0,0,0,.965-.965V195.6h1.076a.965.965,0,0,0,0-1.93h-1.076V192.6a.965.965,0,1,0-1.93,0v1.076h-1.076a.965.965,0,0,0,0,1.93h1.076v1.076A.965.965,0,0,0,334.106,197.644Z" transform="translate(-196.976 -52.556)" fill="#fff"/>
      </g>
    </g>
  </g>
</svg>
