<svg xmlns="http://www.w3.org/2000/svg" width="23.564" height="23.551" viewBox="0 0 23.564 23.551">
  <path id="shezhi" d="M11.554,24.28h4.417v-2.5a.814.814,0,0,1,.441-.737,9.345,9.345,0,0,0,2.061-1.178.933.933,0,0,1,.882,0l2.208,1.324,2.208-3.828-2.208-1.324c-.293-.291-.441-.587-.293-.88,0-.441.148-.737.148-1.178A3.231,3.231,0,0,0,21.27,12.8a1.139,1.139,0,0,1,.293-.737l2.208-1.324L21.564,6.91,19.355,8.234a.933.933,0,0,1-.882,0,9.438,9.438,0,0,0-2.061-1.178,1.274,1.274,0,0,1-.441-.882v-2.5H11.554v2.5a.814.814,0,0,1-.441.737A9.345,9.345,0,0,0,9.052,8.091a.933.933,0,0,1-.882,0L5.961,6.913,3.753,10.738l2.208,1.324a.538.538,0,0,1,.293.737c0,.441-.148.737-.148,1.178a3.231,3.231,0,0,0,.148,1.178.539.539,0,0,1-.293.737L3.753,17.216l2.208,3.828L8.17,19.72a.933.933,0,0,1,.882,0A9.437,9.437,0,0,0,11.113,20.9a.812.812,0,0,1,.441.737Zm5.152,1.472H10.819a.7.7,0,0,1-.737-.737v-2.8a15.994,15.994,0,0,1-1.619-.882L6.109,22.808a.775.775,0,0,1-1.03-.293L2.133,17.363a.633.633,0,0,1,.293-1.03l2.354-1.472V13.094L2.429,11.623a.632.632,0,0,1-.293-1.03L5.079,5.441a.688.688,0,0,1,1.03-.148L8.463,6.765a5.687,5.687,0,0,1,1.619-.882V2.937a.7.7,0,0,1,.737-.737h5.888a.7.7,0,0,1,.737.737v2.8a15.994,15.994,0,0,1,1.619.882l2.354-1.472a.775.775,0,0,1,1.03.293l2.943,5.152a.633.633,0,0,1-.293,1.03l-2.354,1.472v1.767L25.1,16.331a.845.845,0,0,1,.293,1.03l-2.943,5.152a.845.845,0,0,1-1.03.293l-2.354-1.472a5.687,5.687,0,0,1-1.619.882v2.8A.7.7,0,0,1,16.706,25.751Zm-2.943-7.358a4.338,4.338,0,0,1-4.417-4.417A4.338,4.338,0,0,1,13.762,9.56a4.339,4.339,0,0,1,4.417,4.417A4.339,4.339,0,0,1,13.762,18.394Zm0-7.36a2.943,2.943,0,1,0,2.943,2.943A2.951,2.951,0,0,0,13.762,11.034Z" transform="translate(-1.981 -2.2)" fill="#fff"/>
</svg>
