<svg xmlns="http://www.w3.org/2000/svg" width="16.068" height="16.066" viewBox="0 0 16.068 16.066">
  <g id="xiangqing-2" transform="translate(-15.969 -13.747)">
    <path id="路径_1973" data-name="路径 1973" d="M24,13.747a8.033,8.033,0,1,0,8.034,8.032A8.034,8.034,0,0,0,24,13.747Zm0,14.9a6.864,6.864,0,1,1,6.864-6.864A6.864,6.864,0,0,1,24,28.644Z" fill="#fff"/>
    <path id="路径_1974" data-name="路径 1974" d="M397.132,218.157l-.548-.521-.131.121a4.94,4.94,0,0,1-.993.793.05.05,0,0,1,0-.008,16.468,16.468,0,0,1,.736-2.907,13.1,13.1,0,0,0,.464-1.724l0-.014v-.015a.51.51,0,0,0-.193-.419l-.009-.006a.737.737,0,0,0-.467-.131,2.353,2.353,0,0,0-1.076.349,5.6,5.6,0,0,0-1.33,1.117l-.133.154.607.458.117-.12a6.9,6.9,0,0,1,.778-.683.459.459,0,0,1,.144-.063.768.768,0,0,1-.034.155A20.591,20.591,0,0,0,394,218.946l0,.015a.774.774,0,0,0,.19.558l.008.009a.7.7,0,0,0,.5.21h.043a1.8,1.8,0,0,0,.814-.277l.545-.352h-.049a9.55,9.55,0,0,0,.943-.812Zm.383-7.124a.672.672,0,0,0-.694-.642h0a.835.835,0,0,0-.62.278.918.918,0,0,0-.257.655.716.716,0,0,0,.194.513.661.661,0,0,0,.476.2h.019a.836.836,0,0,0,.56-.23h0l.056-.057a.941.941,0,0,0,.269-.668v-.05Z" transform="translate(-371.429 -193.489)" fill="#fff"/>
  </g>
</svg>
