<svg xmlns="http://www.w3.org/2000/svg" width="22.779" height="23.095" viewBox="0 0 22.779 23.095">
  <g id="组_12939" data-name="组 12939" transform="translate(-1026 -590.057)">
    <g id="quyu" transform="translate(1026 590.057)">
      <path id="路径_2369" data-name="路径 2369" d="M115.913,115.275l.331-1.654,7.443,1.486-.33,1.654Zm9.043,3.056,1.675-.2.8,6.7-1.675.2Zm-11.137,9.481,11.053-1.321.2,1.675-11.054,1.321Zm-2.288-.978,1.674-11,1.667.253L113.2,127.089Z" transform="translate(-109.326 -111.375)" fill="#fff"/>
      <path id="路径_2370" data-name="路径 2370" d="M4.892,5.482A2.808,2.808,0,0,1,2.108,2.7a2.741,2.741,0,0,1,5.482,0A2.791,2.791,0,0,1,4.892,5.482Zm0-3.8A1.1,1.1,0,0,0,3.8,2.7,1.088,1.088,0,0,0,4.807,3.711,1.1,1.1,0,0,0,5.9,2.7.974.974,0,0,0,4.892,1.687ZM2.7,20.241a2.7,2.7,0,1,1,0-5.4,2.7,2.7,0,1,1,0,5.4Zm0-3.8a1.026,1.026,0,0,0-1.012,1.012,1.172,1.172,0,0,0,1.012,1.1,1.088,1.088,0,0,0,1.012-1.012A1.1,1.1,0,0,0,2.7,16.446ZM16.024,7.759a2.718,2.718,0,0,1-2.7-2.7,2.775,2.775,0,0,1,2.7-2.7l.311.02a2.7,2.7,0,0,1-.311,5.378Zm0-3.8a1.026,1.026,0,0,0-1.012,1.012,1.012,1.012,0,0,0,2.024,0A1.026,1.026,0,0,0,16.024,3.964Zm1.518,14.169a2.718,2.718,0,0,1-2.7-2.7,2.791,2.791,0,0,1,2.7-2.783,2.718,2.718,0,0,1,2.7,2.7A2.851,2.851,0,0,1,17.543,18.133Zm0-3.8A1.026,1.026,0,0,0,16.53,15.35a1.088,1.088,0,0,0,1.012,1.012.954.954,0,0,0,1.012-.928A1.1,1.1,0,0,0,17.543,14.338Z" fill="#fff"/>
    </g>
    <g id="椭圆_309" data-name="椭圆 309" transform="translate(1034.307 598.679)" fill="#3b3b3e" stroke="#3b3b3e" stroke-width="1">
      <circle cx="7.236" cy="7.236" r="7.236" stroke="none"/>
      <circle cx="7.236" cy="7.236" r="6.736" fill="none"/>
    </g>
    <path id="guideadd" d="M73.052,65.686a1.368,1.368,0,0,0-.4-.9l-.437-.436a1.2,1.2,0,0,0-1.7,0l-5.541,5.54c-.165.166-.783,2.5-.823,2.551L64,73.053l.612-.154c.053-.04,2.384-.659,2.549-.824L72.7,66.535A1.2,1.2,0,0,0,73.052,65.686ZM66.624,71.54c.009.049-1.814.7-1.819.7s.659-1.818.707-1.811l4.214-4.213,1.112,1.112ZM72.165,66l-.789.79-1.112-1.112.789-.79a.442.442,0,0,1,.626,0l.436.437a.627.627,0,0,1,.179.362A.432.432,0,0,1,72.165,66Zm2.651,6.111a.386.386,0,0,1-.386.386H72.5v1.931a.37.37,0,0,1-.367.386.4.4,0,0,1-.406-.386V72.5H69.833a.382.382,0,0,1-.379-.353c.017-.362.178-.419.379-.419h1.893V69.793a.4.4,0,0,1,.406-.386.37.37,0,0,1,.367.386v1.931h1.931A.386.386,0,0,1,74.815,72.11Zm-5.369,0a.23.23,0,0,0,.007.033c0,.021-.007.032-.007.056Z" transform="translate(972.306 536.68)" fill="#fff"/>
  </g>
</svg>
