<?xml version="1.0" encoding="utf-8"?>
<!-- Generator: Adobe Illustrator 23.0.2, SVG Export Plug-In . SVG Version: 6.00 Build 0)  -->
<svg version="1.1" id="图层_1" xmlns="http://www.w3.org/2000/svg" xmlns:xlink="http://www.w3.org/1999/xlink" x="0px" y="0px"
	 viewBox="0 0 169.2 149.9" style="enable-background:new 0 0 169.2 149.9;" xml:space="preserve">
<style type="text/css">
	.st0{clip-path:url(#SVGID_2_);fill:#00AAE8;}
	.st1{clip-path:url(#SVGID_4_);fill:url(#SVGID_5_);}
	.st2{clip-path:url(#SVGID_7_);fill:url(#SVGID_8_);}
</style>
<g>
	<g>
		<defs>
			<rect id="SVGID_1_" width="169.2" height="149.9"/>
		</defs>
		<clipPath id="SVGID_2_">
			<use xlink:href="#SVGID_1_"  style="overflow:visible;"/>
		</clipPath>
		<path class="st0" d="M71.8,60l-0.2-28.3c-6.6,0-12,5.4-12,12v4.3C59.7,47.9,66.8,50.8,71.8,60"/>
		<path class="st0" d="M116.6,54.3h-5.8v-1c0-6.6-5.5-12-12.3-12V54v0.3h-5.7c-2.9,0-5.3,2.4-5.3,5.3c0,2.9,2.4,5.3,5.3,5.3h5.8
			c0.1,2.7,1.1,5.1,2.8,7.1h0c0.1,0.1,0.2,0.3,0.4,0.4h0c0,0,0,0,0,0c0.3,0.3,0.6,0.6,0.8,0.8c0,0,0,0,0.1,0.1
			c0.3,0.2,0.6,0.5,0.9,0.7c0,0,0.1,0,0.1,0.1c0.2,0.2,0.5,0.3,0.7,0.5c0,0,0.1,0,0.1,0.1c0,0,0,0,0.1,0c0,0,0.1,0,0.1,0.1
			c0.3,0.1,0.5,0.3,0.8,0.4c0.1,0,0.1,0.1,0.2,0.1c0,0,0.1,0,0.1,0c0.3,0.1,0.6,0.2,0.9,0.3c0.1,0,0.3,0.1,0.4,0.1
			c0.3,0.1,0.6,0.2,0.8,0.2c0.1,0,0.3,0.1,0.4,0.1c0.3,0.1,0.6,0.1,0.9,0.2c0.1,0,0.3,0,0.4,0.1c0.3,0,0.7,0.1,1,0.1h0
			c0.1,0,0.2,0,0.3,0v-0.6v-3.8v-7.1h5.8c2.9,0,5.3-2.4,5.3-5.3C121.9,56.6,119.5,54.3,116.6,54.3"/>
		<path class="st0" d="M109.9,79.2c-4.6-0.3-8.4-2.9-10.2-5.7l0,0c-0.1-0.2-0.2-0.4-0.3-0.6c0,0,0,0,0,0c-0.1-0.2-0.2-0.4-0.3-0.6
			c-0.1-0.1-0.1-0.3-0.2-0.4h-0.2v2c-0.8,6.6-6.4,11.8-13.3,11.8c-7.4,0-13.4-6-13.4-13.4c0-14.1-11.5-25.6-25.6-25.6
			c-14.1,0-25.6,11.5-25.6,25.6c0,14.1,11.5,25.6,25.6,25.6c7.1,0,13.5-2.9,18.1-7.5C59.1,85.1,58.5,78,58.5,78
			c-2.1,4.6-6.8,7.7-12.2,7.7c-7.4,0-13.4-6-13.4-13.4s6-13.4,13.4-13.4s13.4,6,13.4,13.4c0,14.1,11.4,25.6,25.6,25.6
			c4.9,0,9.4-1.4,13.3-3.7c0,0.1,0,0.3,0,0.4h0c0,0.1,0,0.2,0,0.3c0,7.2-5.8,13-13,13c-4,0-7.7-1.9-10-4.8c-1.1-1.4-2.8-2.3-4.8-2.3
			c-3.4,0-6.1,2.7-6.1,6.1c0,1.5,0.5,2.8,1.4,3.9l0,0c4.6,5.7,11.6,9.3,19.5,9.3c13.9,0,25.1-11.3,25.1-25.1c0-0.1,0-0.2,0-0.3h0
			c0-0.3,0-0.6,0-0.9h0V79.3C110.5,79.3,110.2,79.3,109.9,79.2C109.9,79.2,109.9,79.2,109.9,79.2"/>
	</g>
	<g>
		<defs>
			<path id="SVGID_3_" d="M35.5,30.1c44.2-28.6,93.6-3.3,102.6,37c9,40.2-15.3,60.2-15.3,60.2c13-9.7,22.2-28.8,24.9-42.2
				c2.7-13.5,0-55-40.4-70.5c-8.1-3.1-15.8-4.3-23-4.3C55.5,10.3,35.5,30.1,35.5,30.1"/>
		</defs>
		<clipPath id="SVGID_4_">
			<use xlink:href="#SVGID_3_"  style="overflow:visible;"/>
		</clipPath>
		
			<linearGradient id="SVGID_5_" gradientUnits="userSpaceOnUse" x1="6.347216e-06" y1="149.9129" x2="1" y2="149.9129" gradientTransform="matrix(112.9886 0 0 -112.9886 35.4633 17002.8438)">
			<stop  offset="0" style="stop-color:#036EB8"/>
			<stop  offset="1" style="stop-color:#053A79"/>
			<stop  offset="1" style="stop-color:#053A79"/>
		</linearGradient>
		<rect x="35.5" y="1.5" class="st1" width="114.9" height="125.8"/>
	</g>
	<g>
		<defs>
			<path id="SVGID_6_" d="M125.5,95.6c-11,28.1-34.2,33.7-44.7,34.8c-10.6,1.1-31,0.9-46.5-16.6c0,0,13.9,29.4,55.5,25.4
				s61.8-58.5,31-92.5C120.7,46.7,136.5,67.5,125.5,95.6"/>
		</defs>
		<clipPath id="SVGID_7_">
			<use xlink:href="#SVGID_6_"  style="overflow:visible;"/>
		</clipPath>
		
			<linearGradient id="SVGID_8_" gradientUnits="userSpaceOnUse" x1="6.094999e-06" y1="149.8559" x2="1" y2="149.8559" gradientTransform="matrix(101.3915 0 0 -101.3915 34.2274 15289.1045)">
			<stop  offset="0" style="stop-color:#053A79"/>
			<stop  offset="1" style="stop-color:#00B9EF"/>
		</linearGradient>
		<rect x="34.2" y="46.7" class="st2" width="117.3" height="96.5"/>
	</g>
</g>
</svg>
