<?xml version="1.0" encoding="utf-8"?>
<!-- Generator: Adobe Illustrator 23.0.2, SVG Export Plug-In . SVG Version: 6.00 Build 0)  -->
<svg version="1.1" id="图层_1" xmlns="http://www.w3.org/2000/svg" xmlns:xlink="http://www.w3.org/1999/xlink" x="0px" y="0px"
	 viewBox="0 0 595.3 149.9" style="enable-background:new 0 0 595.3 149.9;" xml:space="preserve">
<style type="text/css">
	.st0{fill:#00AAE8;}
</style>
<g>
	<g>
		<path class="st0" d="M76.5,60.8l-0.2-28.3c-6.6,0-12,5.4-12,12v4.3C64.4,48.7,71.4,51.5,76.5,60.8z"/>
		<path class="st0" d="M121.3,55h-5.8v-1c0-6.6-5.5-12-12.3-12v12.7V55h-5.7c-2.9,0-5.3,2.4-5.3,5.3c0,2.9,2.4,5.3,5.3,5.3h5.8
			c0.1,2.7,1.1,5.1,2.8,7.1l0,0c0,0,0,0,0,0c0.1,0.1,0.2,0.3,0.4,0.4h0c0,0,0,0,0,0c0.3,0.3,0.6,0.6,0.8,0.8c0,0,0,0,0.1,0.1
			c0.3,0.2,0.6,0.5,0.9,0.7c0,0,0.1,0,0.1,0.1c0.2,0.2,0.5,0.3,0.7,0.5c0,0,0.1,0,0.1,0.1c0,0,0,0,0.1,0c0,0,0.1,0,0.1,0.1
			c0.3,0.1,0.5,0.3,0.8,0.4c0.1,0,0.1,0.1,0.2,0.1c0,0,0.1,0,0.1,0c0.3,0.1,0.6,0.2,0.9,0.4c0.1,0,0.3,0.1,0.4,0.1
			c0.3,0.1,0.6,0.2,0.8,0.2c0.1,0,0.3,0.1,0.4,0.1c0.3,0.1,0.6,0.1,0.9,0.2c0.1,0,0.3,0,0.4,0.1c0.3,0,0.7,0.1,1,0.1c0,0,0,0,0,0
			l0,0c0.1,0,0.2,0,0.3,0v-0.6v-3.8v-7.1h5.8c2.9,0,5.3-2.4,5.3-5.3C126.5,57.4,124.2,55,121.3,55z"/>
		<path class="st0" d="M114.5,80c-4.6-0.3-8.4-2.9-10.2-5.7c0,0,0,0,0,0c-0.1-0.2-0.2-0.4-0.3-0.6c0,0,0,0,0,0
			c-0.1-0.2-0.2-0.4-0.3-0.6c-0.1-0.1-0.1-0.3-0.2-0.4h-0.2v2c-0.8,6.6-6.5,11.8-13.3,11.8c-7.4,0-13.4-6-13.4-13.4
			c0-14.1-11.5-25.6-25.6-25.6c-14.1,0-25.6,11.5-25.6,25.6S36.8,98.6,51,98.6c7.1,0,13.5-2.9,18.1-7.5c-5.3-5.3-5.9-12.4-5.9-12.4
			c-2.1,4.6-6.8,7.7-12.1,7.7c-7.4,0-13.4-6-13.4-13.4c0-7.4,6-13.4,13.4-13.4c7.4,0,13.4,6,13.4,13.4c0,14.1,11.5,25.6,25.6,25.6
			c4.9,0,9.4-1.4,13.3-3.7c0,0.1,0,0.3,0,0.4h0c0,0.1,0,0.2,0,0.3c0,7.2-5.8,13-13,13c-4,0-7.7-1.9-10-4.8c-1.1-1.4-2.8-2.3-4.8-2.3
			c-3.4,0-6.1,2.7-6.1,6.1c0,1.5,0.5,2.8,1.4,3.9l0,0c4.6,5.7,11.6,9.3,19.5,9.3c13.9,0,25.1-11.3,25.1-25.1c0-0.1,0-0.2,0-0.3h0
			c0-0.3,0-0.6,0-0.9h0V80C115.1,80,114.8,80,114.5,80C114.5,80,114.5,80,114.5,80z"/>
	</g>
	<path class="st0" d="M40.1,30.8c0,0,31.3-31,71.8-15.5c40.4,15.5,43.1,57,40.4,70.5c-2.7,13.5-11.9,32.6-24.9,42.2
		c0,0,24.3-20,15.3-60.2C133.7,27.6,84.3,2.2,40.1,30.8z"/>
	<path class="st0" d="M125.4,47.4c0,0,15.7,20.8,4.7,48.9c-11,28.1-34.2,33.7-44.7,34.8c-10.6,1.1-31,0.9-46.5-16.6
		c0,0,13.9,29.4,55.5,25.4C135.9,135.9,156.2,81.5,125.4,47.4z"/>
	<g>
		<path class="st0" d="M199,95.9c1.3,0.9,2.9,2,5.1,3.2c5.1,3.2,12,3.6,20.6,3.6c8.1,0,20.9-0.7,29-1.9c-1,2.5-2.5,7.1-2.6,9.6
			c-5.8,0.5-18.4,0.9-26.7,0.9c-9.6,0-16-0.9-21.4-4.1c-3.2-1.8-5.8-4.2-7.5-4.2c-2.4,0-6.2,4.8-9.6,9.6l-6.2-8.5
			c3.3-3.3,6.8-6,10.1-7.7V74.3h-8.7v-8.7H199V95.9z M195.3,59.3c-2.8-3.1-9-7.8-13.6-11.1l6.4-5.7c4.5,2.9,10.8,7.4,14.1,10.4
			L195.3,59.3z M248.4,94.9h-42.5V51.6h16.4V39.7h9.1v11.9h17V94.9z M214.4,69.5h7.9v-9.8h-7.9V69.5z M214.4,86.8h7.9v-10h-7.9V86.8
			z M239.5,59.7h-8.1v9.8h8.1V59.7z M239.5,76.9h-8.1v10h8.1V76.9z"/>
		<path class="st0" d="M303.8,91.2c5.9,7.2,15.7,11.4,29.6,12.8c-2.1,2.1-4.7,6.1-5.8,8.7c-14.8-2.4-24.4-7.8-31.1-17.3
			c-4.7,7.4-14.1,13.4-31.9,17.3c-1-2.1-3.7-5.8-5.8-8c16.9-3.1,25.2-7.9,28.9-13.5h-27.2v-8.8h7.6V64.3h22.7v-7.9h9.9v7.9h23.7
			v18.1h7v8.8H303.8z M276.6,53.3h-15.4v-8.5h15.4v-6h9.3v6h19.5v-6h9.4v6h15.6v8.5h-15.6v7h-9.4v-7h-19.5v7h-9.3V53.3z M290.5,82.4
			c0.2-0.9,0.2-1.9,0.2-2.8v-7.1H277v10H290.5z M300.5,72.5v7.3c0,0.9,0,1.8-0.1,2.7h14.2v-10H300.5z"/>
		<path class="st0" d="M375.5,52.6c0,0-0.1,3.2-0.2,4.3c-1.2,33.4-2.4,45.8-5.1,49.5c-1.8,2.8-3.6,3.7-6.1,4.2
			c-2.2,0.5-5.5,0.5-9,0.4c-0.2-2.8-1.2-7-2.7-9.7c2.8,0.2,5.3,0.3,6.7,0.3c1.2,0,1.9-0.3,2.8-1.5c1.7-2.3,2.9-12.1,3.9-38.3H358
			c-0.9,19.9-3.9,38.1-13.3,50.7c-1.7-2.3-4.8-5.4-7.4-6.7c8.4-10.7,10.7-26.6,11.4-43.9h-9.2v-9.2h9.5c0.1-4.5,0.1-9.2,0.1-13.8
			h9.5c0,4.6-0.1,9.2-0.2,13.8L375.5,52.6z M408.8,47.7v62.6H399v-4.9h-10.6v5.5H379V47.7H408.8z M399,96.3V56.7h-10.6v39.6H399z"/>
		<path class="st0" d="M443,89.1c-0.9-2.2-2.8-5.5-4.7-8.7v32.1h-9.1V84.1c-2.6,6.1-5.5,11.7-8.6,15.7c-0.9-2.7-2.9-6.6-4.3-8.9
			c4.4-5.1,8.9-13.5,11.7-21.2h-10.7v-8.8h11.9v-8.9c-3.1,0.5-6,0.9-8.9,1.3c-0.3-2.1-1.5-5.2-2.5-7.3c9-1.3,18.9-3.8,25.5-6.5
			l5.3,7.7c-3.1,1.2-6.6,2.1-10.2,2.9v10.8h10.4v8.8h-10.4v0.6c2.3,2.2,8.8,9.6,10.3,11.5L443,89.1z M482,92.5v19.9h-9.2V94.2
			l-23.9,4.1l-1.5-8.9l25.4-4.3V38.7h9.2v44.7l7.8-1.3l1.5,8.8L482,92.5z M462.2,81.5c-2.4-3.5-8-8.5-12.6-12.1l6-5.4
			c4.5,3.2,10.4,8.1,13,11.5L462.2,81.5z M464.2,60.7c-2.2-3.4-7.4-8.5-11.8-11.9l6.2-5.4c4.3,3.2,9.8,7.9,12.2,11.4L464.2,60.7z"/>
		<path class="st0" d="M523.7,80.9c-2.8,0.8-5.6,1.6-8.5,2.3v18.9c0,4.6-0.9,6.8-3.6,8.3c-2.6,1.4-6.4,1.7-11.9,1.7
			c-0.4-2.4-1.6-6.1-2.7-8.5c3.1,0.1,6.3,0.1,7.3,0.1c1.2,0,1.5-0.4,1.5-1.6V85.7l-7.7,1.9l-2.4-8.9c2.9-0.6,6.3-1.3,10.1-2.3v-14
			h-9.1v-8.7h9.1v-15h9.3v15h7.7v8.7h-7.7v11.7l7.3-1.8L523.7,80.9z M567.5,70.2c-3,11-8.1,19.6-14.7,26.2c5.1,3.6,11.2,6.2,18.3,8
			c-2,1.9-4.7,5.7-6,8.1c-7.7-2.3-14.2-5.5-19.7-10c-6.2,4.3-13.1,7.4-20.8,9.7c-1-2.5-3.3-6.5-5.1-8.5c7-1.7,13.4-4.2,18.9-7.7
			c-4.7-5.3-8.4-11.5-11.2-18.8l2.4-0.7h-4.1v-8.5H541v-9.5h-17v-8.7h17V38.6h9.3v11.3H568v8.7h-17.7v9.5h9.5l1.7-0.4L567.5,70.2z
			 M536.3,76.6c2.2,5.2,5.4,10,9.3,14c4.1-4,7.5-8.6,9.9-14H536.3z"/>
	</g>
</g>
</svg>
