<svg xmlns="http://www.w3.org/2000/svg" width="153" height="34" viewBox="0 0 153 34">
  <g id="组_12167" data-name="组 12167" transform="translate(-24165 1677)">
    <g id="路径_2143" data-name="路径 2143" transform="translate(24165 -1677)" fill="rgba(42,159,246,0.09)">
      <path d="M 149 33.5 L 4 33.5 C 2.070100069046021 33.5 0.5 31.92989921569824 0.5 30 L 0.5 4 C 0.5 2.070100069046021 2.070100069046021 0.5 4 0.5 L 149 0.5 C 150.9299011230469 0.5 152.5 2.070100069046021 152.5 4 L 152.5 30 C 152.5 31.92989921569824 150.9299011230469 33.5 149 33.5 Z" stroke="none"/>
      <path d="M 4 1 C 2.345794677734375 1 1 2.345800399780273 1 4 L 1 30 C 1 31.65419960021973 2.345794677734375 33 4 33 L 149 33 C 150.6542053222656 33 152 31.65419960021973 152 30 L 152 4 C 152 2.345800399780273 150.6542053222656 1 149 1 L 4 1 M 4 0 L 149 0 C 151.2091369628906 0 153 1.790859222412109 153 4 L 153 30 C 153 32.20914077758789 151.2091369628906 34 149 34 L 4 34 C 1.790863037109375 34 0 32.20914077758789 0 30 L 0 4 C 0 1.790859222412109 1.790863037109375 0 4 0 Z" stroke="none" fill="#2a9ff6"/>
    </g>
    <g id="组_12163" data-name="组 12163" transform="translate(-1 1)">
      <text id="选取文件" transform="translate(24225.352 -1656)" fill="#2a9ff6" font-size="14" font-family="PingFangSC-Regular, PingFang SC" opacity="0.825"><tspan x="0" y="0">选取文件</tspan></text>
      <g id="wenjianshangchuan" transform="translate(24146.199 -1804.6)">
        <path id="路径_2150" data-name="路径 2150" d="M74.71,151.376h-16.4a1.517,1.517,0,0,1-1.515-1.515V136.115a1.517,1.517,0,0,1,1.515-1.515h7.113a1.517,1.517,0,0,1,1.515,1.515.433.433,0,0,1-.866,0,.649.649,0,0,0-.649-.649H58.315a.649.649,0,0,0-.649.649v13.746a.649.649,0,0,0,.649.649h16.4a.433.433,0,1,1,0,.866Z" fill="#2a9ff6"/>
        <path id="路径_2151" data-name="路径 2151" d="M236.921,210.077a.433.433,0,0,1,0-.866.649.649,0,0,0,.649-.649v-8.905a.649.649,0,0,0-.649-.649H224.115a.649.649,0,0,0-.649.649v5.814a.433.433,0,0,1-.866,0v-5.814a1.517,1.517,0,0,1,1.515-1.515h12.806a1.517,1.517,0,0,1,1.515,1.515v8.905A1.517,1.517,0,0,1,236.921,210.077Zm-3.251-13.3h-3.857a1.517,1.517,0,0,1-1.515-1.515v-.225a.433.433,0,0,1,.866,0v.225a.649.649,0,0,0,.649.649h3.857a.433.433,0,0,1,0,.866Z" transform="translate(-162.211 -58.701)" fill="#2a9ff6"/>
        <path id="路径_2152" data-name="路径 2152" d="M157.775,269.365h-.342a.433.433,0,1,1,0-.866h.342a.649.649,0,0,0,.649-.649V264.2a.433.433,0,0,1,.866,0v3.65A1.52,1.52,0,0,1,157.775,269.365ZM171.308,258.3a.434.434,0,0,1-.433-.433v-1.152a.649.649,0,0,0-.649-.649h-1.957a.433.433,0,1,1,0-.866h1.957a1.517,1.517,0,0,1,1.515,1.515v1.152A.434.434,0,0,1,171.308,258.3Z" transform="translate(-98.031 -117.989)" fill="#2a9ff6"/>
        <path id="路径_2153" data-name="路径 2153" d="M578.633,517.859a.434.434,0,0,1-.433-.433v-4.593a.433.433,0,0,1,.866,0v4.593A.434.434,0,0,1,578.633,517.859Z" transform="translate(-510.113 -369.622)" fill="#2a9ff6"/>
        <path id="路径_2154" data-name="路径 2154" d="M580.437,515.266a.443.443,0,0,1-.307-.126l-1.853-1.853a.432.432,0,0,1,.61-.61l1.857,1.853a.431.431,0,0,1,0,.61A.425.425,0,0,1,580.437,515.266Z" transform="translate(-510.065 -369.769)" fill="#2a9ff6"/>
        <path id="路径_2155" data-name="路径 2155" d="M492.784,515.07a.443.443,0,0,1-.307-.126.431.431,0,0,1,0-.61l1.857-1.857a.432.432,0,0,1,.61.61l-1.857,1.857A.409.409,0,0,1,492.784,515.07Z" transform="translate(-426.122 -369.573)" fill="#2a9ff6"/>
      </g>
    </g>
  </g>
</svg>
