<?xml version="1.0" standalone="no"?><!DOCTYPE svg PUBLIC "-//W3C//DTD SVG 1.1//EN" "http://www.w3.org/Graphics/SVG/1.1/DTD/svg11.dtd"><svg class="icon" width="32px" height="32.00px" viewBox="0 0 1024 1024" version="1.1" xmlns="http://www.w3.org/2000/svg"><path d="M555.3 716c12.1-11.8 18.1-26.1 18.1-43 0-16.7-6.1-31.2-18.1-43.3-12.1-12.1-26.6-18.2-43.3-18.2-16.7 0-31.2 6.1-43.3 18.2-12.1 12.1-18.1 26.6-18.1 43.3 0 16.8 6.1 31.1 18.1 43 9.3 9 20 14.6 31.9 16.7 3.8 0.2 7.5 0.3 11.4 0.3 3.9 0 7.6-0.1 11.4-0.3 12-2.1 22.6-7.6 31.9-16.7zM541.4 574.7c8-85.4 32-202.8 32-218.8 0-18.6-5.7-34-17.2-46.4-11.5-12.3-26.2-18.5-44.1-18.5-17.9 0-32.6 6.3-44.2 18.8-11.5 12.4-17.2 27.8-17.2 46.1 0 16 26 133.4 33 218.8h57.7z" fill="#fd6c70" /><path d="M512 960.5c-60.5 0-119.3-11.9-174.6-35.3-53.4-22.6-101.4-54.9-142.5-96.1-41.2-41.1-73.5-89.1-96.1-142.5C75.4 631.3 63.5 572.5 63.5 512s11.9-119.3 35.3-174.6c22.6-53.4 54.9-101.4 96.1-142.6 41.2-41.2 89.1-73.5 142.6-96.1 55.2-23.3 114-35.2 174.5-35.2s119.3 11.9 174.6 35.3c53.4 22.6 101.4 54.9 142.6 96.1 41.2 41.2 73.5 89.1 96.1 142.6 23.4 55.3 35.3 114.1 35.3 174.6s-11.9 119.3-35.3 174.6c-22.7 53.3-55 101.3-96.2 142.4-41.2 41.2-89.1 73.5-142.6 96.1-55.2 23.4-114 35.3-174.5 35.3z m0-832c-211.5 0-383.5 172-383.5 383.5s172 383.5 383.5 383.5 383.5-172 383.5-383.5-172-383.5-383.5-383.5z" fill="#fd6c70" /></svg>