<?xml version="1.0" standalone="no"?><!DOCTYPE svg PUBLIC "-//W3C//DTD SVG 1.1//EN" "http://www.w3.org/Graphics/SVG/1.1/DTD/svg11.dtd"><svg class="icon" width="200px" height="200.00px" viewBox="0 0 1024 1024" version="1.1" xmlns="http://www.w3.org/2000/svg"><path d="M227.2 709.7l42.5-42.5c-11.1-8.7-21.9-17.8-32.5-27.1-50-44.5-87.5-89.3-105.9-113.1 18.5-23.8 55.8-68.6 105.9-113.1 64.9-57.6 165.2-126.2 274.7-126.2 39.5 0 77.7 8.9 113.5 23L671 265c-53.8-24.7-107.3-37-159.2-37-57.3 0-116.6 15.2-176.1 45.3-46.6 23.4-93.4 56-139.3 96.8C119.3 438.9 71.6 507 69.5 509.8c-7.1 10.3-7.1 24 0 34.2 2 2.8 49.6 71 127.1 139.8 10 8.8 20.2 17.5 30.6 25.9z m600-339.7c-18.2-16.2-37.2-31.6-56.8-46l97.1-97.2c12.4-12.5 12.4-32.6 0-45.1l2.7 2.7c-6-6-14-9.3-22.5-9.3-8.4 0-16.5 3.3-22.4 9.3L213.7 797.2c-12.4 12.5-12.4 32.6 0 45.1l-2.7-2.7c6 6 14.1 9.3 22.5 9.3s16.5-3.5 22.5-9.4l66-66.1c4.7 2.5 9.3 5 14 7.3 59.5 30 118.8 45.3 176.1 45.3s116.6-15.2 176.1-45.3c46.6-23.4 93.4-56 139.2-96.8 77.3-68.9 125-137 127.1-139.9 7.1-10.3 7.1-24 0-34.2-2.3-2.8-50-70.9-127.3-139.8z m-181 156.9c0 74.2-60.3 134.6-134.3 134.6-22.6 0-44.1-5.7-62.7-15.6L630.7 464c10.2 19.4 15.5 40.9 15.5 62.9z m140.4 113c-64.9 57.6-165.2 126.2-274.7 126.2-51.5 0-100.9-15.2-145.7-37.3l39.4-39.4c31.6 20.8 68.5 31.9 106.3 31.9 107 0 194-87.2 194-194.4 0-39.3-11.7-75.8-31.8-106.5l53.4-53.5c20.5 14.5 40.2 30.1 59.1 46.9 50 44.4 87.5 89.3 105.9 113.1-18.4 23.7-55.9 68.7-105.9 113zM511.9 392.4c9.9 0 19.6 1.1 28.9 3.1l47.3-47.3c-24.1-10.4-49.9-15.6-76.1-15.6-107 0-194 87.2-194 194.4 0 27.1 5.6 52.9 15.6 76.2l47.3-47.3c-2.1-9.5-3.1-19.2-3.1-28.9-0.2-74.3 60-134.6 134.1-134.6z" fill="#ffffff" /></svg>