<?xml version="1.0" encoding="utf-8"?>
<!-- Generator: Adobe Illustrator 23.0.2, SVG Export Plug-In . SVG Version: 6.00 Build 0)  -->
<svg version="1.1" id="图层_1" xmlns="http://www.w3.org/2000/svg" xmlns:xlink="http://www.w3.org/1999/xlink" x="0px" y="0px"
	 viewBox="0 0 46 46" style="enable-background:new 0 0 46 46;" xml:space="preserve">
<style type="text/css">
	.st0{fill:#0B94FC;}
	.st1{fill:none;stroke:#0B94FC;}
	.st2{fill:#FFFFFF;}
</style>
<g id="组_2617" transform="translate(-635.88 -2757)">
	<g id="椭圆_2" transform="translate(635.88 2757)">
		<ellipse class="st0" cx="23.1" cy="23" rx="23" ry="23"/>
		<ellipse class="st1" cx="23.1" cy="23" rx="22.5" ry="22.5"/>
	</g>
</g>
<g id="bizi" transform="translate(-217.047 -148.615)">
	<path id="路径_1777" class="st2" d="M238.5,183.7l-3.5-0.4c-1.8-0.2-3.4-1.4-4.2-3.1c-0.8-1.7-0.7-3.7,0.3-5.3l9.5-15.8
		c0.2-0.4,0.1-0.8-0.2-1c-0.3-0.2-0.8-0.1-1,0.2c0,0,0,0,0,0l-9.5,15.8c-1.2,2-1.4,4.5-0.3,6.7c1,2.1,3,3.6,5.3,3.9l3.5,0.4
		c0,0,0.1,0,0.1,0c0.4,0,0.7-0.3,0.7-0.7C239.2,184.1,238.9,183.8,238.5,183.7z"/>
	<path id="路径_1778" class="st2" d="M250,175.3c-0.2-0.3-0.7-0.4-1-0.2c-0.3,0.2-0.4,0.7-0.2,1l0,0c1.8,2.5,1.2,4.5,0.6,5.5
		c-0.5,1.1-1.6,1.9-2.8,2h-0.1c-0.5,0-1-0.3-1.1-0.8c-1.5-3.3-5.2-3.8-6.9-3.6c-0.4,0-0.7,0.4-0.6,0.8c0,0,0,0,0,0
		c0.1,0.4,0.4,0.7,0.8,0.6c0.2,0,4-0.4,5.4,2.7c0.4,1,1.3,1.6,2.4,1.7c0,0,0.1,0,0.1,0c1.8-0.2,3.3-1.2,4.1-2.8
		C251.9,180,251.6,177.3,250,175.3z"/>
</g>
</svg>
