<?xml version="1.0" encoding="utf-8"?>
<!-- Generator: Adobe Illustrator 23.0.2, SVG Export Plug-In . SVG Version: 6.00 Build 0)  -->
<svg version="1.1" id="图层_1" xmlns="http://www.w3.org/2000/svg" xmlns:xlink="http://www.w3.org/1999/xlink" x="0px" y="0px"
	 viewBox="0 0 46 46" style="enable-background:new 0 0 46 46;" xml:space="preserve">
<style type="text/css">
	.st0{fill:none;}
	.st1{fill:none;stroke:#0B94FC;stroke-width:2;}
	.st2{fill:#0B94FC;}
</style>
<g id="组_2603" transform="translate(-320.01 -2405)">
	<g id="组_2601">
		<g id="椭圆_2" transform="translate(320.01 2405)">
			<ellipse class="st0" cx="23" cy="23.1" rx="23" ry="23"/>
			<ellipse class="st1" cx="23" cy="23.1" rx="22" ry="22"/>
		</g>
	</g>
</g>
<g id="bizi" transform="translate(-217.047 -148.615)">
	<path id="路径_1777" class="st2" d="M238.4,183.8l-3.5-0.4c-1.8-0.2-3.4-1.4-4.2-3.1c-0.8-1.7-0.7-3.7,0.3-5.3l9.5-15.8
		c0.2-0.4,0.1-0.8-0.2-1c-0.3-0.2-0.8-0.1-1,0.2c0,0,0,0,0,0l-9.5,15.8c-1.2,2-1.4,4.5-0.3,6.7c1,2.1,3,3.6,5.3,3.9l3.5,0.4
		c0,0,0.1,0,0.1,0c0.4,0,0.7-0.3,0.7-0.7C239.1,184.2,238.8,183.8,238.4,183.8z"/>
	<path id="路径_1778" class="st2" d="M250,175.4c-0.2-0.3-0.7-0.4-1-0.2c-0.3,0.2-0.4,0.7-0.2,1l0,0c1.8,2.5,1.2,4.5,0.6,5.5
		c-0.5,1.1-1.6,1.9-2.8,2h-0.1c-0.5,0-1-0.3-1.1-0.8c-1.5-3.3-5.2-3.8-6.9-3.6c-0.4,0-0.7,0.4-0.6,0.8c0,0,0,0,0,0
		c0.1,0.4,0.4,0.7,0.8,0.6c0.2,0,4-0.4,5.4,2.7c0.4,1,1.3,1.6,2.4,1.7c0,0,0.1,0,0.1,0c1.8-0.2,3.3-1.2,4.1-2.8
		C251.9,180.1,251.6,177.3,250,175.4z"/>
</g>
</svg>
